/* XPM */
static const char * gnome_mime_audio_xpm[] = {
"48 52 706 2",
"  	c None",
". 	c #000000",
"+ 	c #232323",
"@ 	c #1F1F1F",
"# 	c #DADADA",
"$ 	c #FFFFFF",
"% 	c #F6F6F6",
"& 	c #CFCFCF",
"* 	c #707070",
"= 	c #FEFEFE",
"- 	c #FBFBFB",
"; 	c #EDEDED",
"> 	c #C0C0C0",
", 	c #F7F7F7",
"' 	c #D7D7D7",
") 	c #F1F1F1",
"! 	c #B7B7B7",
"~ 	c #D2D2D2",
"{ 	c #AEAEAE",
"] 	c #070707",
"^ 	c #FDFDFD",
"/ 	c #B8B8B8",
"( 	c #DCDCDC",
"_ 	c #A4A4A3",
": 	c #0E0E0E",
"< 	c #F3F3F3",
"[ 	c #828282",
"} 	c #B6B6B6",
"| 	c #FEFEFD",
"1 	c #F5F5F4",
"2 	c #B5B5B5",
"3 	c #F9F9F9",
"4 	c #FCFCFC",
"5 	c #CBCBCB",
"6 	c #A5A5A5",
"7 	c #E4E4E4",
"8 	c #171717",
"9 	c #484848",
"0 	c #7C7C7C",
"a 	c #818181",
"b 	c #FDFDFC",
"c 	c #F4F4F4",
"d 	c #ACACAC",
"e 	c #ECECEC",
"f 	c #C3C3C3",
"g 	c #C2C2C2",
"h 	c #C9C9C8",
"i 	c #A8A8A8",
"j 	c #3C3C3C",
"k 	c #585858",
"l 	c #2E2E2E",
"m 	c #FCFCFB",
"n 	c #F4F4F3",
"o 	c #ABABAB",
"p 	c #515151",
"q 	c #474747",
"r 	c #464645",
"s 	c #464646",
"t 	c #5D5D5C",
"u 	c #A9A9A9",
"v 	c #212121",
"w 	c #5C5C5C",
"x 	c #FCFBFB",
"y 	c #FAFAFA",
"z 	c #F2F2F2",
"A 	c #AAAAAA",
"B 	c #A0A09F",
"C 	c #8A8A8A",
"D 	c #7A7A7A",
"E 	c #6C6C6C",
"F 	c #454545",
"G 	c #333333",
"H 	c #808080",
"I 	c #B4B4B4",
"J 	c #FAFAFB",
"K 	c #FAFBFB",
"L 	c #FAFAF9",
"M 	c #E7E7E7",
"N 	c #C6C6C5",
"O 	c #BABAB9",
"P 	c #B4B4B3",
"Q 	c #B3B3B3",
"R 	c #FCFBFA",
"S 	c #FBFAFA",
"T 	c #E8EBEF",
"U 	c #CED4DC",
"V 	c #DBE0E9",
"W 	c #DCE1E8",
"X 	c #D1D5DB",
"Y 	c #D6D9DE",
"Z 	c #F7F8F8",
"` 	c #F8F8F7",
" .	c #F7F7F6",
"..	c #F6F6F5",
"+.	c #F5F5F5",
"@.	c #EDEDEB",
"#.	c #FAF9F8",
"$.	c #F1F4F7",
"%.	c #B3BFCB",
"&.	c #7E8A9B",
"*.	c #515B6F",
"=.	c #50596A",
"-.	c #737D8D",
";.	c #BEC6CE",
">.	c #C4CAD5",
",.	c #BDC3CE",
"'.	c #EDEDEE",
").	c #B1B1B1",
"!.	c #0C0C0C",
"~.	c #080808",
"{.	c #151515",
"].	c #E3E3E3",
"^.	c #575757",
"/.	c #5B5B5B",
"(.	c #F9F7F4",
"_.	c #E1E4E8",
":.	c #9DABBE",
"<.	c #515A6D",
"[.	c #111828",
"}.	c #131B29",
"|.	c #0F1A2B",
"1.	c #081125",
"2.	c #0D1328",
"3.	c #C2C9D1",
"4.	c #C4CBD4",
"5.	c #A4ADB9",
"6.	c #F0F1F0",
"7.	c #F3F3F2",
"8.	c #494949",
"9.	c #FBFBFA",
"0.	c #FAF8F7",
"a.	c #DCDDE3",
"b.	c #96A3B3",
"c.	c #374152",
"d.	c #0D131C",
"e.	c #1C2026",
"f.	c #262C3A",
"g.	c #242E43",
"h.	c #202D41",
"i.	c #172538",
"j.	c #121523",
"k.	c #BABCC3",
"l.	c #9DA6B5",
"m.	c #B6BAC1",
"n.	c #F2F2F1",
"o.	c #7F7F7F",
"p.	c #E1E1E1",
"q.	c #E1E2E4",
"r.	c #97A7B9",
"s.	c #343C4A",
"t.	c #13181E",
"u.	c #1B2027",
"v.	c #1D232B",
"w.	c #1F2632",
"x.	c #212A3C",
"y.	c #242F45",
"z.	c #2A374D",
"A.	c #121C2F",
"B.	c #525A67",
"C.	c #D9DDE5",
"D.	c #727B8A",
"E.	c #E5E5E4",
"F.	c #F1F1F0",
"G.	c #E1E1E0",
"H.	c #F9F9F8",
"I.	c #E8E6E6",
"J.	c #A5B0C3",
"K.	c #232B37",
"L.	c #12171E",
"M.	c #191F27",
"N.	c #1D222B",
"O.	c #1E242B",
"P.	c #1E252F",
"Q.	c #202937",
"R.	c #232F44",
"S.	c #283853",
"T.	c #253046",
"U.	c #0A1526",
"V.	c #D5D7DB",
"W.	c #727C90",
"X.	c #CBCCCF",
"Y.	c #F2F2F0",
"Z.	c #F0F0F0",
"`.	c #7E7E7E",
" +	c #F8F8F8",
".+	c #F5F4F4",
"++	c #A9B2C0",
"@+	c #515C6D",
"#+	c #0A0F17",
"$+	c #1C2129",
"%+	c #1E242A",
"&+	c #1E242C",
"*+	c #1F232D",
"=+	c #232E41",
"-+	c #2B3855",
";+	c #2C3B57",
">+	c #070D1F",
",+	c #A3ABB6",
"'+	c #828EA0",
")+	c #B6BABF",
"!+	c #F0F0EF",
"~+	c #EFEFEE",
"{+	c #EFEFED",
"]+	c #D5D8DD",
"^+	c #5E697A",
"/+	c #121621",
"(+	c #161D26",
"_+	c #1D242C",
":+	c #1F242B",
"<+	c #1E2427",
"[+	c #212C3F",
"}+	c #283552",
"|+	c #2F405D",
"1+	c #0E162B",
"2+	c #59657B",
"3+	c #8A98AA",
"4+	c #ADB2B9",
"5+	c #EEEEED",
"6+	c #EEEEEC",
"7+	c #818B9B",
"8+	c #1B232F",
"9+	c #0F151F",
"0+	c #1B212B",
"a+	c #1E232D",
"b+	c #20252C",
"c+	c #24272C",
"d+	c #1F2429",
"e+	c #1C2228",
"f+	c #1F2A3C",
"g+	c #1F2A40",
"h+	c #25344E",
"i+	c #314464",
"j+	c #15223A",
"k+	c #34445E",
"l+	c #939FB3",
"m+	c #AAB0BA",
"n+	c #EEEEEE",
"o+	c #EDEDEC",
"p+	c #DAE1E8",
"q+	c #242C3D",
"r+	c #0B101C",
"s+	c #1A212A",
"t+	c #1F242C",
"u+	c #21252C",
"v+	c #222629",
"w+	c #1C232A",
"x+	c #212B3D",
"y+	c #33415B",
"z+	c #27344B",
"A+	c #212F47",
"B+	c #374A68",
"C+	c #1A2840",
"D+	c #34445F",
"E+	c #95A3B5",
"F+	c #B0B4BD",
"G+	c #ECECEB",
"H+	c #2A2A2A",
"I+	c #7E8897",
"J+	c #020A14",
"K+	c #171E28",
"L+	c #1C222A",
"M+	c #1E232B",
"N+	c #1F242D",
"O+	c #1F2228",
"P+	c #1D2328",
"Q+	c #283449",
"R+	c #4A5C7B",
"S+	c #697D98",
"T+	c #4D5D79",
"U+	c #1F2D45",
"V+	c #394A6B",
"W+	c #1B2943",
"X+	c #425371",
"Y+	c #B5BABF",
"Z+	c #3B3B3A",
"`+	c #5A5A59",
" @	c #F4F4F2",
".@	c #E7ECF0",
"+@	c #3C4252",
"@@	c #0C111D",
"#@	c #1E232E",
"$@	c #1D212A",
"%@	c #20242C",
"&@	c #1B1D20",
"*@	c #263043",
"=@	c #576886",
"-@	c #8396B1",
";@	c #7A8FAD",
">@	c #677B99",
",@	c #28374F",
"'@	c #384A69",
")@	c #182642",
"!@	c #5D708F",
"~@	c #818FA3",
"{@	c #C2C4C6",
"]@	c #EBEBEA",
"^@	c #3A3A3A",
"/@	c #272727",
"(@	c #7C7C7B",
"_@	c #A7AEB9",
":@	c #0D1522",
"<@	c #1A212E",
"[@	c #1D232C",
"}@	c #21252D",
"|@	c #1E2327",
"1@	c #171B20",
"2@	c #637593",
"3@	c #95A6BE",
"4@	c #6D7F9C",
"5@	c #617395",
"6@	c #5A6E8B",
"7@	c #2A354A",
"8@	c #3D4E6D",
"9@	c #1C2A46",
"0@	c #748DAB",
"a@	c #6C7889",
"b@	c #DADBDC",
"c@	c #ECECEA",
"d@	c #EAEAE9",
"e@	c #EAEAE8",
"f@	c #8E8E8D",
"g@	c #525252",
"h@	c #E9EBEC",
"i@	c #747F8D",
"j@	c #0A121E",
"k@	c #232C3A",
"l@	c #1D232E",
"m@	c #222932",
"n@	c #1B1D21",
"o@	c #1C273E",
"p@	c #C1CFE1",
"q@	c #8FA1B7",
"r@	c #6D81A0",
"s@	c #596D93",
"t@	c #455674",
"u@	c #293343",
"v@	c #4A5C7D",
"w@	c #304060",
"x@	c #7690B8",
"y@	c #5C6877",
"z@	c #B8BEC9",
"A@	c #E7E8E8",
"B@	c #E9E9E8",
"C@	c #E9E9E7",
"D@	c #585857",
"E@	c #D8DBE0",
"F@	c #3E495B",
"G@	c #1C2435",
"H@	c #273041",
"I@	c #283040",
"J@	c #293141",
"K@	c #262B38",
"L@	c #1D212D",
"M@	c #4A5B77",
"N@	c #CFDBEB",
"O@	c #7A8FAC",
"P@	c #6C83A5",
"Q@	c #4D6389",
"R@	c #35445E",
"S@	c #404D60",
"T@	c #506586",
"U@	c #4F6687",
"V@	c #6983AB",
"W@	c #343E50",
"X@	c #4D5F7A",
"Y@	c #B4BDC9",
"Z@	c #3A3A39",
"`@	c #ACACAB",
" #	c #B1B9C7",
".#	c #273245",
"+#	c #29354A",
"@#	c #323D53",
"##	c #364258",
"$#	c #333F52",
"%#	c #343F52",
"&#	c #28354A",
"*#	c #6D7B92",
"=#	c #ACBDD2",
"-#	c #5B7297",
";#	c #495F87",
">#	c #3A4D6B",
",#	c #252F44",
"'#	c #8292AC",
")#	c #586E94",
"!#	c #6782A9",
"~#	c #37404D",
"{#	c #394860",
"]#	c #475977",
"^#	c #6D7D98",
"/#	c #E8E8E7",
"(#	c #E8E8E6",
"_#	c #393939",
":#	c #7A8EA7",
"<#	c #2B374D",
"[#	c #313E56",
"}#	c #34425B",
"|#	c #36425A",
"1#	c #354257",
"2#	c #39465D",
"3#	c #3B4963",
"4#	c #64738B",
"5#	c #768CAD",
"6#	c #354C72",
"7#	c #2E3D5B",
"8#	c #1D273A",
"9#	c #3D4655",
"0#	c #A7BACE",
"a#	c #607799",
"b#	c #617494",
"c#	c #191B1B",
"d#	c #445675",
"e#	c #3A4A65",
"f#	c #6B7990",
"g#	c #AEAEAD",
"h#	c #2C2C2C",
"i#	c #292929",
"j#	c #F0EEE9",
"k#	c #51698B",
"l#	c #313F55",
"m#	c #35435B",
"n#	c #36445A",
"o#	c #35425C",
"p#	c #37465D",
"q#	c #3D4A62",
"r#	c #516079",
"s#	c #47536A",
"t#	c #354561",
"u#	c #212F46",
"v#	c #0F1624",
"w#	c #1A2231",
"x#	c #99A5B7",
"y#	c #97A8C3",
"z#	c #6A7DA0",
"A#	c #394559",
"B#	c #1C1D26",
"C#	c #35435C",
"D#	c #344159",
"E#	c #8C94A0",
"F#	c #E7E7E6",
"G#	c #E6E6E4",
"H#	c #181818",
"I#	c #BCBCBC",
"J#	c #7D7D7D",
"K#	c #0A0A0A",
"L#	c #3D5271",
"M#	c #3A4863",
"N#	c #384862",
"O#	c #3E4C65",
"P#	c #424D67",
"Q#	c #45536C",
"R#	c #4D5A74",
"S#	c #66768F",
"T#	c #76869D",
"U#	c #2A3243",
"V#	c #151A27",
"W#	c #252C3A",
"X#	c #B2BBCE",
"Y#	c #C3D0E3",
"Z#	c #7B8CA9",
"`#	c #51627E",
" $	c #171C22",
".$	c #141920",
"+$	c #242C3A",
"@$	c #3E4A60",
"#$	c #BABDC3",
"$$	c #3E516C",
"%$	c #3F4E68",
"&$	c #3C4A64",
"*$	c #4C5A74",
"=$	c #55637C",
"-$	c #5A6881",
";$	c #707D95",
">$	c #8493A6",
",$	c #BFC8D8",
"'$	c #D8E4F0",
")$	c #CCD5E4",
"!$	c #E2E8F1",
"~$	c #D2DAE9",
"{$	c #8D9DB7",
"]$	c #526380",
"^$	c #323E53",
"/$	c #080B11",
"($	c #0E1217",
"_$	c #272E3A",
":$	c #737C89",
"<$	c #D4D5D6",
"[$	c #E5E5E3",
"}$	c #E4E4E3",
"|$	c #ADADAC",
"1$	c #2C2C2B",
"2$	c #5A718E",
"3$	c #3F4C65",
"4$	c #38475F",
"5$	c #68768E",
"6$	c #6E7C92",
"7$	c #78879B",
"8$	c #959FB1",
"9$	c #AAB4C1",
"0$	c #C4CBD8",
"a$	c #D7DCE6",
"b$	c #D3D9E1",
"c$	c #CCD3DC",
"d$	c #8C9CB4",
"e$	c #52627B",
"f$	c #38475E",
"g$	c #080E1A",
"h$	c #060910",
"i$	c #0E0F14",
"j$	c #4F5768",
"k$	c #B4B6B9",
"l$	c #DADAD8",
"m$	c #DFDFDE",
"n$	c #E2E2E1",
"o$	c #E3E3E1",
"p$	c #EFEFEF",
"q$	c #ECEBE9",
"r$	c #93A8C2",
"s$	c #2F3E56",
"t$	c #6C7A93",
"u$	c #939EAE",
"v$	c #A9B3C0",
"w$	c #BDC3CB",
"x$	c #C8CCD2",
"y$	c #CDCFD5",
"z$	c #CBD2DB",
"A$	c #C7CFDC",
"B$	c #A4B2C7",
"C$	c #4C576D",
"D$	c #262C3C",
"E$	c #242D3A",
"F$	c #232C3D",
"G$	c #323B4B",
"H$	c #464B59",
"I$	c #939495",
"J$	c #C7C7C5",
"K$	c #D3D3D2",
"L$	c #DFDFDD",
"M$	c #E4E4E2",
"N$	c #E7E7E5",
"O$	c #C8D6E7",
"P$	c #515D76",
"Q$	c #33415A",
"R$	c #66728A",
"S$	c #C0C7D2",
"T$	c #CACED7",
"U$	c #CCCDD2",
"V$	c #CBCED1",
"W$	c #C8CED3",
"X$	c #C2CDDB",
"Y$	c #A2B1C5",
"Z$	c #586377",
"`$	c #181F27",
" %	c #363A3F",
".%	c #565756",
"+%	c #616160",
"@%	c #646361",
"#%	c #767675",
"$%	c #90908F",
"%%	c #9D9D9B",
"&%	c #AEAEAC",
"*%	c #C1C1C0",
"=%	c #CFCFCD",
"-%	c #EBEBE9",
";%	c #DEE3EA",
">%	c #5F708B",
",%	c #717E92",
"'%	c #4F5E78",
")%	c #8391A4",
"!%	c #A9B4C2",
"~%	c #B1BBC5",
"{%	c #BAC3CE",
"]%	c #D5DDE8",
"^%	c #9EA7B9",
"/%	c #444D63",
"(%	c #1F242F",
"_%	c #2D2F32",
":%	c #414241",
"<%	c #4C4C4C",
"[%	c #4F4F4F",
"}%	c #565655",
"|%	c #5F5F5E",
"1%	c #727271",
"2%	c #818180",
"3%	c #969695",
"4%	c #B1B1B0",
"5%	c #C3C3C2",
"6%	c #D2D2D0",
"7%	c #EBEAE8",
"8%	c #EBEAE9",
"9%	c #DBDBD9",
"0%	c #CDCED0",
"a%	c #949EB4",
"b%	c #5B697E",
"c%	c #9DA7B7",
"d%	c #D8DEE4",
"e%	c #D4DAE1",
"f%	c #DBE1E5",
"g%	c #DBDDE3",
"h%	c #818894",
"i%	c #1E293A",
"j%	c #1B222B",
"k%	c #222425",
"l%	c #313030",
"m%	c #343433",
"n%	c #353535",
"o%	c #3F3F3F",
"p%	c #575756",
"q%	c #6A6A69",
"r%	c #A3A3A2",
"s%	c #CECECC",
"t%	c #D5D5D3",
"u%	c #B9B9B8",
"v%	c #9B9EA2",
"w%	c #616678",
"x%	c #2F3A4F",
"y%	c #2C3649",
"z%	c #394250",
"A%	c #111923",
"B%	c #010613",
"C%	c #0A0F16",
"D%	c #1F2125",
"E%	c #262627",
"F%	c #282828",
"G%	c #292828",
"H%	c #292928",
"I%	c #2F2F2E",
"J%	c #5C5C5B",
"K%	c #777776",
"L%	c #B9B9B7",
"M%	c #CDCDCB",
"N%	c #959594",
"O%	c #6F7072",
"P%	c #454B50",
"Q%	c #2F353C",
"R%	c #23272C",
"S%	c #222529",
"T%	c #25272A",
"U%	c #2E2F30",
"V%	c #302F2F",
"W%	c #30302F",
"X%	c #303030",
"Y%	c #323232",
"Z%	c #363635",
"`%	c #3C3C3B",
" &	c #454544",
".&	c #545453",
"+&	c #676767",
"@&	c #838382",
"#&	c #A8A8A6",
"$&	c #BEBEBC",
"%&	c #D1D1CF",
"&&	c #BDBDBC",
"*&	c #A1A1A0",
"=&	c #868684",
"-&	c #6C6B6A",
";&	c #5F5F60",
">&	c #575758",
",&	c #4B4B4A",
"'&	c #484847",
")&	c #444443",
"!&	c #494948",
"~&	c #4C4C4B",
"{&	c #555554",
"]&	c #656564",
"^&	c #888887",
"/&	c #A0A09E",
"(&	c #B6B6B4",
"_&	c #CACAC9",
":&	c #D7D7D5",
"<&	c #E2E2E0",
"[&	c #BCBCBA",
"}&	c #9D9D9C",
"|&	c #969795",
"1&	c #8F8F8E",
"2&	c #878786",
"3&	c #7E7E7D",
"4&	c #797978",
"5&	c #7A7A79",
"6&	c #7F7F7E",
"7&	c #828280",
"8&	c #A2A2A1",
"9&	c #BBBBBA",
"0&	c #CCCCCA",
"a&	c #D6D6D4",
"b&	c #DCDCDA",
"c&	c #E8E7E6",
"d&	c #E8E7E5",
"e&	c #E0E0DE",
"f&	c #D8D8D6",
"g&	c #C6C6C4",
"h&	c #B8B8B6",
"i&	c #AFAFAD",
"j&	c #A9A9A8",
"k&	c #ABABAA",
"l&	c #B2B2B1",
"m&	c #BABAB8",
"n&	c #C9C9C7",
"o&	c #DDDDDB",
"p&	c #E1E1DF",
"q&	c #E6E6E5",
"r&	c #D1D1D0",
"s&	c #CBCBCA",
"t&	c #D2D2D1",
"u&	c #E3E3E2",
"v&	c #9A9A9A",
"w&	c #8C8C8C",
"  . . . . . . . . . . . . . . . . . . . . . . . . . . . . . . . . . . + @                       ",
". # $ $ $ $ $ $ $ $ $ $ $ $ $ $ $ $ $ $ $ $ $ $ $ $ $ $ $ $ $ $ $ $ $ % & * .                   ",
". $ $ $ $ $ $ $ $ $ $ $ $ $ $ $ $ $ $ $ $ $ $ = = = = = = = = = = = = - % ; > .                 ",
". $ $ $ $ $ $ $ $ $ $ $ $ $ $ $ $ $ $ $ $ = = = = = = = = = = = = = = , ' $ ) ! .               ",
". $ $ $ $ $ $ $ $ $ $ $ $ $ $ $ $ $ $ = = = = = = = = = = = = = = = = , ~ $ $ ; { ]             ",
". $ $ $ $ $ $ $ $ $ $ $ $ $ $ $ $ = = = = = = = = = = = = = = = = ^ ^ % / $ ^ $ ( _ :           ",
". $ $ $ $ $ $ $ $ $ $ $ < [ } = = = = = = = | = = = = = = ^ ^ ^ ^ ^ ^ 1 2 $ 3 4 $ 5 6 .         ",
". $ $ $ $ $ $ $ $ $ $ $ 7 8 9 0 a 2 = = = = = = | | ^ ^ ^ ^ ^ b 4 4 4 c d e f 5 / g h i .       ",
". $ $ $ $ $ $ $ $ $ $ = j a = 2 0 k 0 l = = ^ ^ ^ ^ ^ ^ b 4 4 4 4 4 m n o p q r s s t u .       ",
". $ $ $ $ $ $ $ $ = = = v w a 2 = = 2 l ^ ^ ^ ^ b x 4 4 4 4 4 m - - y z < > A B C D E F .       ",
". $ $ $ $ $ $ = = = = 2 G = 2 H H I H w ^ 4 4 4 4 x 4 m J K K - y L L 3 - , , M N h O D .       ",
". $ $ $ $ = = = = = = k w ^ ^ ^ ^ P v Q 4 4 4 4 R S K T U V W X Y Z 3 , `  ...+.+.+.@.u .       ",
". $ $ = = = = = ^ ^ ^ j I ^ 4 4 4 Q G 4 m - - - #.$.%.&.*.=.-.;.>.,.'.% , +.+.1 1 < < )..       ",
". $ = = ^ ^ ^ ^ H !.~.{.].4 4 4 4 ^./.- - - S (._.:.<.[.}.|.1.2.3.4.5.6.1 1 c n < 7.7.2 .       ",
". $ ^ ^ ^ ^ ^ 4 . 8.. . ].m - - - j Q 9.9.y 0.a.b.c.d.e.f.g.h.i.j.k.l.m.z n 7.7.7.n.n.2 .       ",
". $ ^ b 4 4 4 4 H !.!.o.- - o.!.~.{.p.y y 0.q.r.s.t.u.v.w.x.y.z.A.B.C.D.E.7.z z n.F.F.2 .       ",
". $ 4 4 4 4 m - - - - - 9.9.. 8.. . G.L H.I.J.K.L.M.N.O.P.Q.R.S.T.U.V.W.X.n.Y.F.F.Z.Z.2 .       ",
". $ m m - - - - 9.9.y y y y o.!.!.`. + +.+++@+#+$+N.O.%+&+*+=+-+;+>+,+'+)+Y.Z.Z.!+~+{+2 .       ",
". $ - - - 9.9.y y y y L L L 3 3  + +` ` ]+^+/+(+_+&+:+:+<+w.[+}+|+1+2+3+4+~+!+~+5+5+6+2 .       ",
". $ 9.y y y y y L L 3 3 3 3 ` ` , , , , 7+8+9+0+a+b+c+d+e+f+g+h+i+j+k+l+m+n+n+5+6+o+o+2 .       ",
". $ y y L L 3 3 3 3 3 ).` , , ,  .....p+q+r+s+N.t+u+v+w+x+y+z+A+B+C+D+E+F+5+6+o+o+e G+2 .       ",
". $ L 3 3 3 3 H.H. +, H+,  . ...+.c % I+J+K+L+M+N+O+P+Q+R+S+T+U+V+W+X+E+Y+o+@.@.G+G+G+2 .       ",
". $ 3 H.H.H. + +,  . .Z+`++.+.c n  @.@+@@@#@$@%@N+&@*@=@-@;@>@,@'@)@!@~@{@@.G+G+]@]@]@2 .       ",
". $  + + + + . . .% % ^@/@k (@n < n _@:@<@[@}@u+|@1@2@3@4@5@6@7@8@9@0@a@b@c@]@]@]@d@e@2 .       ",
". $ `  . . .% % % 1 1 ^@f@g@k k n.h@i@j@k@l@m@b+n@o@p@q@r@s@t@u@v@w@x@y@z@A@]@d@B@B@C@2 .       ",
". $ % % % ....1 1 < < ^@7.7.d D@) E@F@G@H@I@J@K@L@M@N@O@P@Q@R@S@T@U@V@W@X@Y@B@B@C@C@C@2 .       ",
". $ ......1 c c 7.7.7.Z@n.) F.`@F. #.#+#@###$#%#&#*#=#-#;#>#,#'#)#!#~#{#]#^#B@C@/#/#(#2 .       ",
". $ +.c n n 7.7.7.z n._#F.F.F.!+!+:#<#[#}#|#1#2#3#4#5#6#7#8#9#0#a#b#c#d#e#f#/#/#(#(#(#2 .       ",
". $ n n 7.z z g#h#. h#i#Z.!+!+5+j#k#l#m#n#o#p#q#r#s#t#u#v#w#x#y#z#A#B#C#D#E#(#F#F#F#G#2 .       ",
". $ z n.n.n.n.H#I#J#. K#!+~+~+n+!+L#M#N#O#P#Q#R#S#T#U#V#W#X#Y#Z#`# $.$+$@$#$F#F#G#G#E.2 .       ",
". $ n.n.n.F.!+H#J#. . H#{+5+5+o+5+$$%$&$*$=$-$;$>$,$'$)$!$~${$]$^$/$($_$:$<$[$}$E.E.E.2 .       ",
". $ ) F.!+!+!+|$1$. 1$o 5+o+o+G+G+2$3$4$5$6$7$8$9$0$a$b$c$d$e$f$g$h$i$j$k$l$m$n$o$[$[$2 .       ",
". $ !+!+p$~+~+~+{+5+5+G+G+G+G+c@q$r$3$s$t$u$v$w$x$y$z$A$B$C$D$E$F$G$H$I$O J$K$l$L$[$M$2 .       ",
". $ ~+~+~+~+{+5+6+G+G+G+G+G+c@e@N$O$P$Q$R$S$T$U$V$W$X$Y$Z$`$ %.%+%@%#%$%%%&%*%=%l$M$M$2 .       ",
". $ ~+~+5+5+6+G+G+G+G+]@]@]@-%N$G.;%>%,%'%)%!%~%{%]%^%/%(%_%:%<%[%}%|%1%2%3%4%5%6%M$M$2 .       ",
". $ 5+5+@.G+G+c@7%8%]@]@-%-%C@o$9%0%a%b%c%d%e%f%g%h%i%j%k%l%m%n%Z@o%q p%q%2%r%O s%M$M$2 .       ",
". $ @.G+c@]@]@]@]@-%-%d@e@e@(#m$t%u%v%w%x%y%z%A%B%C%D%E%F%G%H%h#I%G j 9 J%K%B L%M%o$o$2 .       ",
". $ c@]@]@]@-%d@d@d@d@e@e@(#[$L$K$/ N%O%P%Q%R%S%T%U%V%W%I%X%X%Y%Z%`% &.&+&@&#&$&%&o$o$2 .       ",
". $ -%-%d@d@d@d@d@e@e@(#(#(#G#L$t%&&*&=&-&;&>&p <%,&'&s )&s !&~&{&`+]&#%^&/&(&_&:&<&<&2 .       ",
". $ d@d@d@e@e@B@B@/#(#(#(#N$G#<&9%s%[&&%}&|&1&2&@&3&4&K%K%5&6&7&^&1&3%8&`@9&0&a&b&<&<&2 .       ",
". $ e@B@B@B@B@c&d&d&F#F#N$N$N$[$e&f&=%g&$&O h&P 4%i&j&j&j&k&|$|$l&(&m&5%n&%&f&o&p&p&p&2 .       ",
". $ B@B@B@(#F#F#F#F#N$N$N$q&q&G#o$L$9%:&K$r&%&=%s%=%0&s&s&M%=%%&t&t&t%a&l$b&p&e&p&p&p&2 .       ",
". $ C@F#F#F#F#N$N$N$q&q&q&G#[$[$[$}$}$M$M$M$M$M$u&u&o$o$o$o$o$o$o$<&<&<&<&p&p&p&p&p&p&2 .       ",
". $ F#N$N$N$q&q&q&q&G#G#[$}$}$}$M$M$M$M$M$M$M$o$o$o$o$o$o$o$o$<&<&<&<&p&p&p&p&p&p&p&p&2 .       ",
". $ N$q&q&q&G#G#G#G#}$}$M$M$M$M$M$M$M$M$M$o$o$o$o$o$o$o$o$<&<&<&<&p&p&p&p&p&p&p&p&p&p&2 .       ",
". $ q&G#G#G#G#E.}$M$M$M$M$M$M$M$M$M$M$o$o$o$o$o$o$o$o$<&<&<&<&p&p&p&p&p&p&p&p&p&p&p&p&2 .       ",
". # G#G#G#[$M$M$M$M$M$M$M$M$M$M$u&o$o$o$o$o$o$o$o$<&<&<&<&p&p&p&p&p&p&p&p&p&p&p&p&p&p&v&.       ",
". g 2 2 2 2 2 2 2 2 2 2 2 2 2 2 2 2 2 2 2 2 2 2 2 2 2 2 2 2 2 2 2 2 2 2 2 2 2 2 2 2 v&w&.       ",
"  . . . . . . . . . . . . . . . . . . . . . . . . . . . . . . . . . . . . . . . . . . . .       ",
"                                                                                                ",
"                                                                                                ",
"                                                                                                "};
