/* XPM */
static const char * gnome_fs_loading_icon_xpm[] = {
"48 52 209 2",
"  	c None",
". 	c #000000",
"+ 	c #232323",
"@ 	c #1F1F1F",
"# 	c #DADADA",
"$ 	c #FFFFFF",
"% 	c #F6F6F6",
"& 	c #CFCFCF",
"* 	c #707070",
"= 	c #FEFEFE",
"- 	c #FBFBFB",
"; 	c #EDEDED",
"> 	c #C0C0C0",
", 	c #F7F7F7",
"' 	c #D7D7D7",
") 	c #F1F1F1",
"! 	c #B7B7B7",
"~ 	c #D2D2D2",
"{ 	c #AEAEAE",
"] 	c #070707",
"^ 	c #FDFDFD",
"/ 	c #B8B8B8",
"( 	c #DCDCDC",
"_ 	c #A4A4A3",
": 	c #0E0E0E",
"< 	c #F5F5F4",
"[ 	c #B5B5B5",
"} 	c #F9F9F9",
"| 	c #FCFCFC",
"1 	c #CBCBCB",
"2 	c #A5A5A5",
"3 	c #FDFDFC",
"4 	c #F4F4F4",
"5 	c #ACACAC",
"6 	c #ECECEC",
"7 	c #C3C3C3",
"8 	c #C2C2C2",
"9 	c #C9C9C8",
"0 	c #A8A8A8",
"a 	c #FCFCFB",
"b 	c #F4F4F3",
"c 	c #ABABAB",
"d 	c #515151",
"e 	c #474747",
"f 	c #464645",
"g 	c #464646",
"h 	c #5D5D5C",
"i 	c #A9A9A9",
"j 	c #FAFAFA",
"k 	c #F2F2F2",
"l 	c #F3F3F3",
"m 	c #AAAAAA",
"n 	c #A0A09F",
"o 	c #8A8A8A",
"p 	c #7A7A7A",
"q 	c #6C6C6C",
"r 	c #454545",
"s 	c #FAFAF9",
"t 	c #E7E7E7",
"u 	c #C6C6C5",
"v 	c #BABAB9",
"w 	c #F8F8F7",
"x 	c #F7F7F6",
"y 	c #F6F6F5",
"z 	c #F5F5F5",
"A 	c #EDEDEB",
"B 	c #FBFBFA",
"C 	c #F9F9F8",
"D 	c #B1B1B1",
"E 	c #E1E1E1",
"F 	c #D1D1D1",
"G 	c #C6C6C6",
"H 	c #D0D0D0",
"I 	c #E0E0E0",
"J 	c #F3F3F2",
"K 	c #B0B0B0",
"L 	c #383838",
"M 	c #141414",
"N 	c #020202",
"O 	c #373737",
"P 	c #F8F8F8",
"Q 	c #F2F2F1",
"R 	c #CBCBCA",
"S 	c #BFBFBF",
"T 	c #5B5B5B",
"U 	c #878787",
"V 	c #D3D3D3",
"W 	c #D6D6D6",
"X 	c #D5D5D5",
"Y 	c #BDBDBD",
"Z 	c #848484",
"` 	c #5F5F5E",
" .	c #ECECEB",
"..	c #F1F1F0",
"+.	c #A0A0A0",
"@.	c #262626",
"#.	c #939393",
"$.	c #D4D4D4",
"%.	c #E2E2E2",
"&.	c #909090",
"*.	c #272727",
"=.	c #C4C4C4",
"-.	c #F2F2F0",
";.	c #F0F0F0",
">.	c #CACACA",
",.	c #DEDEDE",
"'.	c #CECECE",
").	c #C8C8C8",
"!.	c #E8E8E8",
"~.	c #BABABA",
"{.	c #161616",
"].	c #CCCCCC",
"^.	c #F0F0EF",
"/.	c #EFEFEE",
"(.	c #EFEFED",
"_.	c #DBDBDA",
":.	c #BFBFBE",
"<.	c #C1C1C1",
"[.	c #2C2C2C",
"}.	c #F1F1EF",
"|.	c #EEEEED",
"1.	c #EEEEEC",
"2.	c #5A5A5A",
"3.	c #E5E5E5",
"4.	c #8F8F8F",
"5.	c #747474",
"6.	c #EEEEEE",
"7.	c #EDEDEC",
"8.	c #DFDFDE",
"9.	c #AEAEAD",
"0.	c #A1A1A1",
"a.	c #999999",
"b.	c #030303",
"c.	c #EFEFEF",
"d.	c #6A6A6A",
"e.	c #919191",
"f.	c #8E8E8E",
"g.	c #8D8D8D",
"h.	c #C2C2C1",
"i.	c #818181",
"j.	c #484848",
"k.	c #EBEBEA",
"l.	c #BCBCBC",
"m.	c #131312",
"n.	c #727272",
"o.	c #6B6B6B",
"p.	c #1B1B1B",
"q.	c #ECECEA",
"r.	c #EAEAE9",
"s.	c #EAEAE8",
"t.	c #BBBBBA",
"u.	c #DFDFDF",
"v.	c #636363",
"w.	c #BBBBBB",
"x.	c #E9E9E8",
"y.	c #E9E9E7",
"z.	c #4C4C4C",
"A.	c #626262",
"B.	c #DDDDDD",
"C.	c #EBEBE9",
"D.	c #CACAC9",
"E.	c #131313",
"F.	c #EAEAEA",
"G.	c #BEBEBE",
"H.	c #646464",
"I.	c #2E2E2E",
"J.	c #494949",
"K.	c #E8E8E7",
"L.	c #E8E8E6",
"M.	c #D8D8D7",
"N.	c #333333",
"O.	c #575757",
"P.	c #787878",
"Q.	c #686868",
"R.	c #7F7F7F",
"S.	c #8C8C8C",
"T.	c #8B8B8B",
"U.	c #E7E7E6",
"V.	c #E6E6E4",
"W.	c #EBEBEB",
"X.	c #E3E3E2",
"Y.	c #E5E5E4",
"Z.	c #5C5C5B",
"`.	c #898989",
" +	c #989898",
".+	c #757575",
"++	c #E7E7E5",
"@+	c #323231",
"#+	c #E5E5E3",
"$+	c #BDBDBC",
"%+	c #151515",
"&+	c #E4E4E4",
"*+	c #ADADAD",
"=+	c #1B1B1A",
"-+	c #CDCDCD",
";+	c #E4E4E2",
">+	c #2C2C2B",
",+	c #828282",
"'+	c #D9D9D9",
")+	c #313131",
"!+	c #888888",
"~+	c #E4E4E3",
"{+	c #DDDDDC",
"]+	c #1A1A1A",
"^+	c #E3E3E1",
"/+	c #E6E6E5",
"(+	c #E2E2E0",
"_+	c #E1E1DF",
":+	c #9A9A9A",
"  . . . . . . . . . . . . . . . . . . . . . . . . . . . . . . . . . . + @                       ",
". # $ $ $ $ $ $ $ $ $ $ $ $ $ $ $ $ $ $ $ $ $ $ $ $ $ $ $ $ $ $ $ $ $ % & * .                   ",
". $ $ $ $ $ $ $ $ $ $ $ $ $ $ $ $ $ $ $ $ $ $ = = = = = = = = = = = = - % ; > .                 ",
". $ $ $ $ $ $ $ $ $ $ $ $ $ $ $ $ $ $ $ $ = = = = = = = = = = = = = = , ' $ ) ! .               ",
". $ $ $ $ $ $ $ $ $ $ $ $ $ $ $ $ $ $ = = = = = = = = = = = = = = = = , ~ $ $ ; { ]             ",
". $ $ $ $ $ $ $ $ $ $ $ $ $ $ $ $ = = = = = = = = = = = = = = = = ^ ^ % / $ ^ $ ( _ :           ",
". $ $ $ $ $ $ $ $ $ $ $ $ $ $ = = = = = = = = = = = = = = ^ ^ ^ ^ ^ ^ < [ $ } | $ 1 2 .         ",
". $ $ $ $ $ $ $ $ $ $ $ $ = = = = = = = = = = = = = ^ ^ ^ ^ ^ 3 | | | 4 5 6 7 1 / 8 9 0 .       ",
". $ $ $ $ $ $ $ $ $ $ = = = = = = = = = = = ^ ^ ^ ^ ^ ^ 3 | | | | | a b c d e f g g h i .       ",
". $ $ $ $ $ $ $ $ = = = = = = = = = = ^ ^ ^ ^ ^ 3 | | | | | | a - - j k l > m n o p q r .       ",
". $ $ $ $ $ $ = = = = = = = = ^ ^ ^ ^ ^ ^ | | | | | | a - - - - j s s } - , , t u 9 v p .       ",
". $ $ $ $ = = = = = = ^ ^ ^ ^ ^ ^ 3 | | | | | | a - - - - - s } } } } , w x y z z z A i .       ",
". $ $ = = = = = ^ ^ ^ ^ ^ ^ | | | | | | a - - - - - B B } } } } C x x % , z z < < l l D .       ",
". $ = = ^ ^ ^ ^ ^ ^ 3 | | | | | | w E F G > > G H I z } } C C % % % % < < < 4 b l J J [ .       ",
". $ ^ ^ ^ ^ ^ | | | | | | a - - ( > K q L M N N M O q 9 P % % % y < 4 4 4 b J J J Q Q [ .       ",
". $ ^ 3 | | | | | | a - - - ) R S T N U > V W X ~ Y Z N `  .y < 4 4 b b J J k k Q ....[ .       ",
". $ | | | | a - - - - - B ..G +.@.#.$.%.z | | | - l 6 E &.*.=.b b b J k k Q -.....;.;.[ .       ",
". $ a a - - - - B B j j j >.+.M S ,.;.^ ^ ^ '.).| - - , !.~.{.].J Q Q Q Q -.;.;.^./.(.[ .       ",
". $ - - - B B j j j j s _.:.@.! %.- ^ ^ ^ ^ S / - - j } P !.<.[.J Q ) ..}.^.^./.|.|.1.[ .       ",
". $ B j j j j j s s } z S 2.U ,.- ^ ^ ^ ^ ^ K i - - } } , % 3.4.5...}.^.^.6.6.|.1.7.7.[ .       ",
". $ j j s s } } } } } 8.9.N $., ^ ^ ^ ^ ^ ^ 0.a.- j } P , z l !.b.E c.|.|.|.1.7.7.6  .[ .       ",
". $ s } } } } C C P , '.d.U %.| ^ ^ ^ ^ = ^ e.o - j } P % z l ; f.g.|.|.1.7.A A  . . .[ .       ",
". $ } C C C P P , x x h.O > 4 | | ^ ^ = $ = i.p - } P , z 4 k c.V j.) 7.A A  . .k.k.k.[ .       ",
". $ P P P P x x x % % l.m.V j - | | ^ ^ = ^ n.o.6.} P % 4 l ) c., p.b A  .q.k.k.k.r.s.[ .       ",
". $ w x x x % % % < < t.N !.j u.- | | | | | v.T 1 3., z 4 k w.6.P b.y q.k.k.k.r.x.x.y.[ .       ",
". $ % % % y y < < l l S N ,.} # j - - - - - e.z.r A.> B.k ) [ ; P b.x k.C.x.x.x.y.y.y.[ .       ",
". $ y y y < 4 4 J J J D.E.# P } } } } j j j F.G.H.I.*.J.) c.; } , p.x x.x.x.x.y.K.K.L.[ .       ",
". $ z 4 b b J J J k Q M.N.Y z , P P P P P P , % B.G.O.P.c.6.6 } V j.< x.K.K.K.K.L.L.L.[ .       ",
". $ b b J k k Q Q ....7.Q.R.E % % % % , % % z 4 4 k ) c.6.; 4 P S.T.Q K.K.K.L.U.U.U.V.[ .       ",
". $ k Q Q Q Q ....;.^.^.h.N H W.4 4 z 4 4 4 l k ) ;.c.6.; 6 P ) b.X.1.L.U.U.U.U.V.V.Y.[ .       ",
". $ Q Q Q ..^.^.^.^.^./.(.Z.`.$.k k k k k ) ) ;.;.c.6.; 6 } P  +.+y y.U.U.++V.Y.Y.Y.Y.[ .       ",
". $ ) ..^.^.^.^././.(.|.|.X.@.c V ;.;.;.;.;.c.c.6.6.; 6 } P =.@+y 6.++++V.V.Y.Y.#+#+#+[ .       ",
". $ ^.^.c./././.(.|.|. . . .$+%+c ~ &+6.6.6.{ *+; 6 W.P P 8 =+-+Q ++V.V.Y.#+#+#+#+#+;+[ .       ",
". $ /./././.(.|.1. . . . . .q.u >+,+-+'+6 6 6 6 W.4 P , S.)+-+b L.V.#+#+#+#+#+#+#+;+;+[ .       ",
". $ /./.|.|.1. . . . .k.k.k.C.C. .n.b.!+).B.P P , ) > b..+z Q U.#+#+#+#+#+#+~+;+;+;+;+[ .       ",
". $ |.|.A  . .q.k.k.k.k.C.C.s.s.s.K.{+T.j.]+b.b.]+j.T.%.4 7.#+#+#+#+#+~+~+;+;+;+;+;+;+[ .       ",
". $ A  .q.k.k.k.k.C.C.r.s.s.s.K.L.L.L.K.7...b < < l ^.W.V.#+#+~+~+~+~+;+;+;+;+;+;+^+^+[ .       ",
". $ q.k.k.k.C.r.r.r.r.s.s.L.L.L.L.U.U.++++++/+/+Y.#+#+#+#+~+~+;+;+;+;+;+;+;+;+^+^+^+^+[ .       ",
". $ C.C.r.r.r.r.r.s.s.L.L.L.L.++++++++++/+V.#+#+#+#+#+~+;+;+;+;+;+;+;+;+;+^+^+^+^+(+(+[ .       ",
". $ r.r.r.s.s.x.x.K.L.L.L.++++++++++V.V.#+#+#+#+#+;+;+;+;+;+;+;+;+;+X.^+^+^+^+(+(+(+(+[ .       ",
". $ s.x.x.x.x.K.L.L.U.U.++++++++V.V.#+#+#+#+#+;+;+;+;+;+;+;+X.X.X.^+^+^+^+(+(+(+(+_+_+[ .       ",
". $ x.x.x.L.U.U.U.U.++++++/+/+V.#+#+#+#+~+~+;+;+;+;+;+X.X.^+^+^+^+^+^+(+(+(+(+_+_+_+_+[ .       ",
". $ y.U.U.U.U.++++++/+/+/+V.#+#+#+~+~+;+;+;+;+;+X.X.^+^+^+^+^+^+^+(+(+(+(+_+_+_+_+_+_+[ .       ",
". $ U.++++++/+/+/+/+V.V.#+~+~+~+;+;+;+;+;+;+;+^+^+^+^+^+^+^+^+(+(+(+(+_+_+_+_+_+_+_+_+[ .       ",
". $ ++/+/+/+V.V.V.V.~+~+;+;+;+;+;+;+;+;+;+^+^+^+^+^+^+^+^+(+(+(+(+_+_+_+_+_+_+_+_+_+_+[ .       ",
". $ /+V.V.V.V.Y.~+;+;+;+;+;+;+;+;+;+;+^+^+^+^+^+^+^+^+(+(+(+(+_+_+_+_+_+_+_+_+_+_+_+_+[ .       ",
". # V.V.V.#+;+;+;+;+;+;+;+;+;+;+X.^+^+^+^+^+^+^+^+(+(+(+(+_+_+_+_+_+_+_+_+_+_+_+_+_+_+:+.       ",
". 8 [ [ [ [ [ [ [ [ [ [ [ [ [ [ [ [ [ [ [ [ [ [ [ [ [ [ [ [ [ [ [ [ [ [ [ [ [ [ [ [ :+S..       ",
"  . . . . . . . . . . . . . . . . . . . . . . . . . . . . . . . . . . . . . . . . . . . .       ",
"                                                                                                ",
"                                                                                                ",
"                                                                                                "};
