/* XPM */
static const char * gnome_mime_video_mpeg_xpm[] = {
"48 52 441 2",
"  	c None",
". 	c #000000",
"+ 	c #232323",
"@ 	c #1F1F1F",
"# 	c #DADADA",
"$ 	c #FFFFFF",
"% 	c #F5F5F5",
"& 	c #F3F3F3",
"* 	c #FCFCFC",
"= 	c #F9F9F9",
"- 	c #EDEDED",
"; 	c #ECECEC",
"> 	c #F6F6F6",
", 	c #CFCFCF",
"' 	c #707070",
") 	c #F0F0F0",
"! 	c #EFEFEF",
"~ 	c #EEEEEE",
"{ 	c #F8F8F8",
"] 	c #F4F4F4",
"^ 	c #E9E9E9",
"/ 	c #E8E8E8",
"( 	c #E7E7E7",
"_ 	c #FEFEFE",
": 	c #FBFBFB",
"< 	c #C0C0C0",
"[ 	c #EBEBEB",
"} 	c #EAEAEA",
"| 	c #F7F7F7",
"1 	c #F2F2F2",
"2 	c #E4E4E4",
"3 	c #E3E3E3",
"4 	c #D7D7D7",
"5 	c #F1F1F1",
"6 	c #B7B7B7",
"7 	c #E6E6E6",
"8 	c #D0D0D0",
"9 	c #9E9E9E",
"0 	c #696969",
"a 	c #3F3F3F",
"b 	c #282828",
"c 	c #5D5D5D",
"d 	c #8A8A8A",
"e 	c #AFAFAF",
"f 	c #D2D2D2",
"g 	c #AEAEAE",
"h 	c #070707",
"i 	c #E2E2E2",
"j 	c #E1E1E1",
"k 	c #A5A5A5",
"l 	c #818181",
"m 	c #555555",
"n 	c #7F7F7F",
"o 	c #CACACA",
"p 	c #C7C7C7",
"q 	c #BEBEBE",
"r 	c #8B8B8B",
"s 	c #565656",
"t 	c #535353",
"u 	c #CECECE",
"v 	c #FDFDFD",
"w 	c #B8B8B8",
"x 	c #DCDCDC",
"y 	c #A4A4A3",
"z 	c #0E0E0E",
"A 	c #DFDFDF",
"B 	c #DEDEDE",
"C 	c #DDDDDD",
"D 	c #C3C3C3",
"E 	c #505050",
"F 	c #616161",
"G 	c #B3B3B3",
"H 	c #D8D8D8",
"I 	c #AAAAAA",
"J 	c #343434",
"K 	c #A6A6A6",
"L 	c #F5F5F4",
"M 	c #B5B5B5",
"N 	c #CBCBCB",
"O 	c #D1D1D1",
"P 	c #4A4A4A",
"Q 	c #9B9B9B",
"R 	c #DBDBDB",
"S 	c #B1B1B1",
"T 	c #B4B4B4",
"U 	c #BBBBBB",
"V 	c #D6D6D6",
"W 	c #212121",
"X 	c #969696",
"Y 	c #FDFDFC",
"Z 	c #ACACAC",
"` 	c #C2C2C2",
" .	c #C9C9C8",
"..	c #A8A8A8",
"+.	c #D4D4D4",
"@.	c #9C9C9C",
"#.	c #454545",
"$.	c #CDCDCD",
"%.	c #A0A0A0",
"&.	c #B2B2B2",
"*.	c #2A2A2A",
"=.	c #FCFCFB",
"-.	c #F4F4F3",
";.	c #ABABAB",
">.	c #515151",
",.	c #474747",
"'.	c #464645",
").	c #464646",
"!.	c #5D5D5C",
"~.	c #A9A9A9",
"{.	c #A4A4A4",
"].	c #686868",
"^.	c #202020",
"/.	c #7A7A7A",
"(.	c #6D6D6D",
"_.	c #797979",
":.	c #646464",
"<.	c #0B0B0B",
"[.	c #303030",
"}.	c #FAFAFA",
"|.	c #767676",
"1.	c #222222",
"2.	c #E5E5E5",
"3.	c #A0A09F",
"4.	c #6C6C6C",
"5.	c #B6B6B6",
"6.	c #676767",
"7.	c #5F5F5F",
"8.	c #1B1B1B",
"9.	c #626262",
"0.	c #727272",
"a.	c #656565",
"b.	c #595959",
"c.	c #7C7C7C",
"d.	c #898989",
"e.	c #818180",
"f.	c #FAFAF9",
"g.	c #C6C6C5",
"h.	c #BABAB9",
"i.	c #7B7B7B",
"j.	c #6A6A6A",
"k.	c #C8C8C8",
"l.	c #757575",
"m.	c #6B6B6B",
"n.	c #494949",
"o.	c #848484",
"p.	c #888888",
"q.	c #1A1A1A",
"r.	c #F8F8F7",
"s.	c #F7F7F6",
"t.	c #F6F6F5",
"u.	c #EDEDEB",
"v.	c #9D9D9D",
"w.	c #525252",
"x.	c #717171",
"y.	c #B9B9B9",
"z.	c #A7A7A7",
"A.	c #414141",
"B.	c #F9F9F8",
"C.	c #999999",
"D.	c #C1C1C1",
"E.	c #7E7E7E",
"F.	c #BDBDBD",
"G.	c #F3F3F2",
"H.	c #D5D5D5",
"I.	c #828282",
"J.	c #C5C5C5",
"K.	c #737373",
"L.	c #BFBFBF",
"M.	c #929292",
"N.	c #F2F2F1",
"O.	c #909090",
"P.	c #777777",
"Q.	c #949493",
"R.	c #F1F1F0",
"S.	c #8D8D8D",
"T.	c #C6C6C6",
"U.	c #747474",
"V.	c #2F2F2F",
"W.	c #F2F2F0",
"X.	c #D3D3D3",
"Y.	c #6F6F6F",
"Z.	c #808080",
"`.	c #161616",
" +	c #C3C3C2",
".+	c #F0F0EF",
"++	c #EFEFEE",
"@+	c #EFEFED",
"#+	c #9F9F9F",
"$+	c #ADADAD",
"%+	c #323232",
"&+	c #5A5A5A",
"*+	c #585858",
"=+	c #2B2B2B",
"-+	c #F3F3F1",
";+	c #F1F1EF",
">+	c #EEEEED",
",+	c #EEEEEC",
"'+	c #FBFBFA",
")+	c #7D7D7D",
"!+	c #434343",
"~+	c #4E4E4E",
"{+	c #939393",
"]+	c #292929",
"^+	c #E6E6E5",
"/+	c #EDEDEC",
"(+	c #9C9C9B",
"_+	c #949494",
":+	c #0F0F0F",
"<+	c #CCCCCC",
"[+	c #5B5B5B",
"}+	c #858585",
"|+	c #4D4D4D",
"1+	c #4B4B4B",
"2+	c #C8C8C7",
"3+	c #ECECEB",
"4+	c #D9D9D9",
"5+	c #5C5C5C",
"6+	c #383838",
"7+	c #606060",
"8+	c #CBCBCA",
"9+	c #E9E9E8",
"0+	c #E8E8E7",
"a+	c #A1A1A1",
"b+	c #2D2D2D",
"c+	c #2E2E2E",
"d+	c #575756",
"e+	c #E0E0E0",
"f+	c #E5E5E3",
"g+	c #EBEBEA",
"h+	c #575757",
"i+	c #4C4C4C",
"j+	c #393939",
"k+	c #484848",
"l+	c #525251",
"m+	c #414140",
"n+	c #333333",
"o+	c #424241",
"p+	c #8A8A89",
"q+	c #CECECC",
"r+	c #E8E8E6",
"s+	c #ECECEA",
"t+	c #EAEAE9",
"u+	c #EAEAE8",
"v+	c #DDDDDC",
"w+	c #787878",
"x+	c #8E8E8E",
"y+	c #959595",
"z+	c #262626",
"A+	c #90908F",
"B+	c #E0E0DF",
"C+	c #E7E7E6",
"D+	c #E9E9E7",
"E+	c #989897",
"F+	c #A5A5A4",
"G+	c #636363",
"H+	c #A3A3A3",
"I+	c #BCBCBC",
"J+	c #5E5E5E",
"K+	c #696968",
"L+	c #DEDEDD",
"M+	c #E1E1E0",
"N+	c #8F8F8F",
"O+	c #5E5E5D",
"P+	c #424242",
"Q+	c #919191",
"R+	c #3E3E3E",
"S+	c #3B3B3B",
"T+	c #7A7A79",
"U+	c #7F7F7E",
"V+	c #8C8C8C",
"W+	c #979796",
"X+	c #E5E5E4",
"Y+	c #9A9A9A",
"Z+	c #A3A3A2",
"`+	c #757574",
" @	c #353535",
".@	c #1D1D1D",
"+@	c #727271",
"@@	c #B8B8B7",
"#@	c #B3B3B2",
"$@	c #B1B1B0",
"%@	c #B6B6B5",
"&@	c #9D9D9C",
"*@	c #3D3D3D",
"=@	c #D6D6D5",
"-@	c #E4E4E3",
";@	c #969695",
">@	c #BDBDBC",
",@	c #878786",
"'@	c #878787",
")@	c #BABABA",
"!@	c #2C2C2C",
"~@	c #9F9F9E",
"{@	c #DBDBDA",
"]@	c #E6E6E4",
"^@	c #A1A1A0",
"/@	c #8B8B8A",
"(@	c #888887",
"_@	c #BCBCBB",
":@	c #CECECD",
"<@	c #E1E1DF",
"[@	c #E3E3E1",
"}@	c #989898",
"|@	c #939391",
"1@	c #919190",
"2@	c #91918F",
"3@	c #C2C2C0",
"4@	c #C2C2C1",
"5@	c #ADADAC",
"6@	c #3E3E3D",
"7@	c #AFAFAE",
"8@	c #DCDCDB",
"9@	c #DFDFDE",
"0@	c #E2E2E1",
"a@	c #D7D7D6",
"b@	c #D3D3D2",
"c@	c #D0D0CF",
"d@	c #CACAC9",
"e@	c #CACAC8",
"f@	c #CBCBC9",
"g@	c #D6D6D4",
"h@	c #DCDCDA",
"i@	c #E0E0DE",
"j@	c #ACACAB",
"k@	c #D9D9D8",
"l@	c #D5D5D4",
"m@	c #D4D4D3",
"n@	c #A2A2A1",
"o@	c #CCCCCB",
"p@	c #313131",
"q@	c #323231",
"r@	c #363636",
"s@	c #313130",
"t@	c #30302F",
"u@	c #242424",
"v@	c #6C6C6B",
"w@	c #D3D3D1",
"x@	c #D9D9D7",
"y@	c #DDDDDB",
"z@	c #B1B1AF",
"A@	c #E3E3E2",
"B@	c #DFDFDD",
"C@	c #D4D4D2",
"D@	c #CDCDCB",
"E@	c #ABABAA",
"F@	c #50504F",
"G@	c #141414",
"H@	c #646463",
"I@	c #898987",
"J@	c #979795",
"K@	c #A3A3A1",
"L@	c #B3B3B1",
"M@	c #B4B4B3",
"N@	c #A8A8A6",
"O@	c #D7D7D5",
"P@	c #B6B6B4",
"Q@	c #B2B2B1",
"R@	c #E5CD98",
"S@	c #9A7F45",
"T@	c #CFCFCD",
"U@	c #B5B5B4",
"V@	c #E7E7E5",
"W@	c #C18400",
"X@	c #4D3500",
"Y@	c #EBEBE9",
"Z@	c #DADAD8",
"`@	c #D2D2D0",
" #	c #C0C0BF",
".#	c #B9B9B8",
"+#	c #F6EDDA",
"@#	c #C58D13",
"##	c #DBB76B",
"$#	c #FDFCF9",
"%#	c #F1E3C6",
"&#	c #CC9B31",
"*#	c #D1A443",
"=#	c #F1E4C9",
"-#	c #F4E9D3",
";#	c #FEFDFB",
">#	c #F3E8D0",
",#	c #DEBF7B",
"'#	c #BABAB8",
")#	c #BBBBB9",
"!#	c #F0E2C3",
"~#	c #C28707",
"{#	c #C68F18",
"]#	c #FBF7F0",
"^#	c #C18402",
"/#	c #D4AA50",
"(#	c #F5EBD6",
"_#	c #F2E6CC",
":#	c #D6AE59",
"<#	c #C48B10",
"[#	c #C99321",
"}#	c #ECD9B2",
"|#	c #BBBBBA",
"1#	c #BDBDBB",
"2#	c #BCBCBA",
"3#	c #BEBEBC",
"4#	c #ECDAB3",
"5#	c #E9D4A6",
"6#	c #E9D4A7",
"7#	c #C18504",
"8#	c #FCFAF5",
"9#	c #C8921E",
"0#	c #BEBEBD",
"a#	c #C0C0BE",
"b#	c #C7901A",
"c#	c #FBF7EF",
"d#	c #C7911B",
"e#	c #C18401",
"f#	c #EEDDBA",
"g#	c #BFBFBE",
"h#	c #C1C1C0",
"i#	c #E7D1A0",
"j#	c #D4AB52",
"k#	c #FCFAF6",
"l#	c #EBD7AD",
"m#	c #FCF9F4",
"n#	c #C28606",
"o#	c #C4C4C2",
"p#	c #C5C5C3",
"q#	c #F1E3C7",
"r#	c #C99524",
"s#	c #C4C4C3",
"t#	c #DBDBD9",
"u#	c #C7C7C6",
"v#	c #C8C8C6",
"w#	c #E4E4E2",
"x#	c #CF9F3A",
"y#	c #FAF6ED",
"z#	c #FEFDFC",
"A#	c #F8F1E3",
"B#	c #E7D09F",
"C#	c #D8D8D6",
"D#	c #D1D1CF",
"E#	c #D0D0CE",
"F#	c #A2A2A0",
"G#	c #D5D5D3",
"H#	c #E2E2E0",
"  . . . . . . . . . . . . . . . . . . . . . . . . . . . . . . . . . . + @                       ",
". # $ $ $ $ % $ & $ $ $ $ $ $ * = - $ ; $ $ $ $ $ $ $ $ $ $ $ $ $ $ $ > , ' .                   ",
". $ $ $ $ $ ) ! ~ $ $ $ $ $ * { ] ^ / ( $ $ $ _ _ _ _ _ _ _ _ _ _ _ _ : > - < .                 ",
". $ $ $ $ $ [ $ } $ $ $ $ : | 1 ~ 2 $ 3 $ _ _ _ _ _ _ _ _ _ _ _ _ _ _ | 4 $ 5 6 .               ",
". $ $ $ $ $ ( 7 7 $ $ $ { / 8 9 0 a b c d e ] : _ _ _ _ _ _ _ _ _ _ _ | f $ $ - g h             ",
". $ $ $ $ $ 3 $ i j j f k l m n e o p q r s t u = _ _ _ _ _ _ _ _ v v > w $ v $ x y z           ",
". $ $ $ $ $ A B B C D E F G ( $ $ $ { f H ( I J K 1 _ _ _ v v v v v v L M $ = * $ N k .         ",
". $ $ $ $ $ x $ 4 O P Q v $ $ $ $ R S T U 4 ] V W X % * v v v Y * * * ] Z ; D N w `  ....       ",
". $ $ $ $ $ H +.@.#.e $.S v $ $ O %.g k d r ] % &.*.w ! Y * * * * * =.-.;.>.,.'.).).!.~..       ",
". $ $ $ $ $ +.O ,.{.].^.m $.$ v /.(._.:.<.[.}.| i |.1.2.{ * * =.: : }.1 & < I 3.d /.4.#..       ",
". $ $ $ $ $ 5.6.6 7.8.9.0.< _ j :.:.a.b.1.c.* ] ) d.F e.- : : : }.f.f.= : | | ( g. .h./..       ",
". $ $ $ $ - i.{.S 1.F j.6.k.$ % l.j.m.n.~.: % ; | o.p.q.2 }.f.= = = = | r.s.t.% % % u.~..       ",
". $ $ _ : q l.$ v.w.0.x.;.$ $ _ 2 y.< }.* % [ } | d.z.A.< > = = B.s.s.> | % % L L & & S .       ",
". $ _ _ ~ C.6 $ 5 6 z.D.v $ _ : = % ] ) ~ [ ^ 7 > E.F.m Z L B.> > > > L L L ] -.& G.G.M .       ",
". $ v v H.I.! $ $ _ = $ $ _ }.= % A 6 J.| ] 7 2 5 K.L.s M.5 > > t.L ] ] ] -.G.G.G.N.N.M .       ",
". $ v Y K O.$ $ $ = % > v }.{ 5 z.P.l._.M.& ) ^ H.F q n.Q.N.t.L ] ] -.-.G.G.1 1 N.R.R.M .       ",
". $ * * S.F.$ $ T.x.:.i.] { 5 z.m.0.U.l.l.< { C z.9.~.V.6 ) ] -.-.-.G.1 1 N.W.R.R.) ) M .       ",
". $ =.=.(.X.$ f r Y.].m.{ ] O /.U.l.|.P.7.Z.= V :.i.r `. +G.-.& G.N.N.N.N.W.) ) .+++@+M .       ",
". $ : : Y.H.& #+$+c.m.4.}.& S P.|.P._.F %+O ! %.&+M.*+=+H & -+N.N.N.5 R.;+.+.+++>+>+,+M .       ",
". $ '+}.)+D T.I z.F j.l.* 5 G /.P.P.7.!+D.& U ~+{+P.]+..^+N.N.5 5 R.;+.+.+~ ~ >+,+/+/+M .       ",
". $ }.}.(+_+o G o.:+t <+* [ H.{+x.c p.<+> J.m [+}+|+1+2+~ ++.+R.;+.+! >+>+>+,+/+/+; 3+M .       ",
". $ f.= 4+5+R N i.6+D.* - ^ 7 C +.B ~ ] D.0.%+Z.7+@ y 8+9+3+/+++++>+>+>+,+/+u.u.3+3+3+M .       ",
". $ = B.0+a+g ~ j ) = [ ( 7 i / j B H.k.t b+0.x.c+d+e V e+f+9+g+/+- /+/+u.u.3+3+g+g+g+M .       ",
". $ { | ; , h+< ! ; } ( 2.i e+C H <+~.w.i+n ,.c+j+k+P l+m+J n+n+o+p+q+r+g+s+g+g+g+t+u+M .       ",
". $ s.L N.v+r i+w V # e+e+R O D...6.h+w+M.E.4./.x+_+@.M D k.;.y+_.1+z+A+B+C+g+t+9+9+D+M .       ",
". $ % 1 ~ C+E+F+>.G+H+I+5.}+/.m.J+7+o.i.x.t P #.7.M.Z.o 4 A A # L.K l |+K+L+C+9+D+D+D+M .       ",
". $ -.R.g+M+v.N+(.O+P+m.P.Q+#+v.r ].R+S+T+E+p+U+U.s n V+p.}+o.l E.Z.M.)+).W+X+D+0+0+r+M .       ",
". $ & ~ C+B Y+o p+S Z+`+c 7+a  @@ .@F +@@@#@G $@%@&@*@r O.` p k.o L.q }+c. @=@-@r+r+r+M .       ",
". $ N.++C+B @.;@Q+>@G ~.p.w+i.U+,@l }+'@)@h.h.h.%@%.!@S.x.p N o k.` I+~.w+k+~@{@X+^+]@M .       ",
". $ 5 >+9+M+^@8 ;@Q+N+x+V+/@(@p.d./@_@V+>@I+_@_@_@..V.'@|.I+D.` < L.g Z r 9.m :@<@[@-@M .       ",
". $ R..+3+^+k %.@.}@X {+|@Q+Q+A+1@2@1@1@3@4@4@4@4@5@6@c.x.D < U y.K a+v.Q c @ 7@8@9@0@T .       ",
". $ 5 .+/+t+;.M+{.a@b@c@:@8+d@ . .E+e@}@8+f@8+8+d@y P m.m.j.a.7+[+h+w.E w.s V.U+g@h@i@G .       ",
". $ .+.+~ 3+e $+j@B+v+k@a@l@m@m@8+^@n@n@l@=@=@l@o@x+S+w.A.6+p@q@r@s@t@p@V.V.u@v@w@x@y@&..       ",
". $ ++++++>+#@g+z@X+A@M+B+A B@C@D@E@L+;.B@C C C 4@F@G@H@K.I@J@K@5@z@L@M@N@(@z+!.w@O@y@&..       ",
". $ ++++>+>+P@M@#@t+9+C+^+^+h@w@8+$@Q@$@A@-@R@R@R@R@R@R@R@R@R@R@R@R@R@R@R@R@R@R@R@R@R@R@R@R@R@S@",
". $ >+>+u.3+%@s+%@t+t+t+D+i@O@T@g.T ^+U@V@^+R@W@W@W@W@W@W@W@W@W@W@W@W@W@W@W@W@W@W@W@W@W@W@W@W@X@",
". $ u.3+s+g+@@@@@@Y@Y@t+<@Z@`@2+ #.#.#w C+C+R@W@$ +#@#W@W@##$ $ W@$ $ $ $#%#&#W@*#=#-#;#>#,#W@X@",
". $ s+g+g+g+'#t+h.h.h.)#)#'#'#'#)#h.C+)#V@V@R@W@$ $ !#~#{#]#$ $ W@$ $ ^#/#$ (#W@_#$ :#<#[#}#W@X@",
". $ Y@Y@t+t+|#_@_@1#1#)#2#2#1#2#1#1#1#3#^+]@R@W@$ 4#$ 5#6#4#$ $ W@$ $ W@7#$ $#W@8#$ 9#W@W@W@W@X@",
". $ t+t+t+u+>@9+0#0+r+r+r+V@V@V@V@a#]@a#f+f+R@W@$ b#c#$ ]#d#$ $ W@$ $ e#:#$ f#W@$ $ e#$ $ $ W@X@",
". $ u+9+9+9+L.L.g#r+C+C+V@V@V@V@B@h#h#h#f+f+R@W@$ W@/#i#j#W@$ $ W@$ $ $ k#l#{#W@m#$ n#W@$ $ W@X@",
". $ 9+9+9+r+< C+D.C+V@V@V@^+^+i@Z@o#f+p#-@-@R@W@$ W@W@W@W@W@$ $ W@$ $ W@W@W@W@W@q#$ r#W@$ $ W@X@",
". $ D+C+C+C+s#o#p#V@^+^+^+]@B@t#g@g.u#v#w#w#R@W@$ W@W@W@W@W@$ $ W@$ $ W@W@W@W@W@x#!#y#z#A#B#W@X@",
". $ C+V@V@V@g.^+u#^+]@]@f+9@{@=@w@e@w#d@w#w#R@W@W@W@W@W@W@W@W@W@W@W@W@W@W@W@W@W@W@W@W@W@W@W@W@X@",
". $ V@^+^+^+e@e@d@]@-@-@B@{@C#C@D#D@q+T@w#[@S@X@X@X@X@X@X@X@X@X@X@X@X@X@X@X@X@X@X@X@X@X@X@X@X@X@",
". $ ^+]@]@]@D@X+o@D@D@q+T@T@E#D#D#`@w#`@[@[@[@N@Z+Z+Z+K@K@K@K@F#F#F#F#F#F#F#F#F#F#F#F#V+.       ",
". # ]@]@]@f+T@E#E#D#D#`@w@b@b@C@b@C@G#g@[@[@[@[@[@H#H#H#H#<@<@<@<@<@<@<@<@<@<@<@<@<@<@Y+.       ",
". ` M M M M M M M M M M M M M M M M M M M M M M M M M M M M M M M M M M M M M M M M Y+V+.       ",
"  . . . . . . . . . . . . . . . . . . . . . . . . . . . . . . . . . . . . . . . . . . . .       ",
"                                                                                                ",
"                                                                                                ",
"                                                                                                "};
