/* XPM */
static const char * noread_xpm[] = {
"40 40 96 2",
"  	c None",
". 	c #FFFFFF",
"+ 	c #E6A1AB",
"@ 	c #DA6676",
"# 	c #D3485C",
"$ 	c #C91C34",
"% 	c #C60D27",
"& 	c #D03A4F",
"* 	c #E08390",
"= 	c #EAB0B8",
"- 	c #EDBFC5",
"; 	c #D65769",
"> 	c #F3DBDF",
", 	c #EFCDD1",
"' 	c #E3919D",
") 	c #C92B2C",
"! 	c #E28C69",
"~ 	c #FAE5DB",
"{ 	c #FDF3ED",
"] 	c #F0C0A6",
"^ 	c #D1533C",
"/ 	c #DF8390",
"( 	c #D55668",
"_ 	c #D97151",
": 	c #DD7E5C",
"< 	c #D76145",
"[ 	c #D2485B",
"} 	c #CF394E",
"| 	c #CE4033",
"1 	c #F4CCB5",
"2 	c #EDB294",
"3 	c #E49A77",
"4 	c #D2475B",
"5 	c #D55567",
"6 	c #F7D8C6",
"7 	c #DD7F8D",
"8 	c #D8717F",
"9 	c #FAEFEA",
"0 	c #FBFBFB",
"a 	c #E8A585",
"b 	c #C91B34",
"c 	c #D66172",
"d 	c #CE374C",
"e 	c #EBD1D5",
"f 	c #F0EDEE",
"g 	c #D35365",
"h 	c #C91B33",
"i 	c #D14559",
"j 	c #E8C3C9",
"k 	c #E5B5BC",
"l 	c #D56172",
"m 	c #C81B33",
"n 	c #E6C1C9",
"o 	c #EDEBEE",
"p 	c #E3B3BC",
"q 	c #CD374C",
"r 	c #EBDDE2",
"s 	c #D04559",
"t 	c #DE97A3",
"u 	c #D46071",
"v 	c #DB8895",
"w 	c #EBE9EC",
"x 	c #D25265",
"y 	c #CB2940",
"z 	c #DFA4AE",
"A 	c #E6CDD3",
"B 	c #E4C0C7",
"C 	c #E9DBE0",
"D 	c #D66E7E",
"E 	c #DD96A2",
"F 	c #D66D7D",
"G 	c #CD364C",
"H 	c #E1B1B9",
"I 	c #E8DADE",
"J 	c #CF4458",
"K 	c #DC96A1",
"L 	c #EAE8EA",
"M 	c #CB283F",
"N 	c #DDA2AB",
"O 	c #CF4357",
"P 	c #DB949F",
"Q 	c #D56C7C",
"R 	c #CA283F",
"S 	c #CC364B",
"T 	c #E2BDC4",
"U 	c #D25E6F",
"V 	c #D67987",
"W 	c #E0C7CD",
"X 	c #D15D6F",
"Y 	c #C81A33",
"Z 	c #CC354B",
"` 	c #D78492",
" .	c #DB9FA9",
"..	c #D36B7A",
"+.	c #CE4257",
"@.	c #D9929D",
". . . . . . . . . . . . . . . . . . . . . . . . . . . . . . . . . . . . . . . . ",
". . . . . . . . . . . . . . . . . . . . . . . . . . . . . . . . . . . . . . . . ",
". . . . . . . . . . . . . . . . . . . . . . . . . . . . . . . . . . . . . . . . ",
". . . . . . . . . . . . . . . . . . . . . . . . . . . . . . . . . . . . . . . . ",
". . . . . . . . . . . . . . . . . . . . . . . . . . . . . . . . . . . . . . . . ",
". . . . . . . . . . . . . . . . . . . . . . . . . . . . . . . . . . . . . . . . ",
". . . . . . . . . . . . . . . . . . . . . . . . . . . . . . . . . . . . . . . . ",
". . . . . . . . . . . . . . . . . . . . . . . . . . . . . . . . . . . . . . . . ",
". . . . . . . . . . . . . . . . . . . . . . . . . . . . . . . . . . . . . . . . ",
". . . . . . . . . . . . . . . . . . . . . . . . . . . . . . . . . . . . . . . . ",
". . . . . . . . . . . . . . . . . . . . . . . . . . . . . . . . . . . . . . . . ",
". . . . . . . . . . . . . . . + @ # $ % % % & # * = . . . . . . . . . . . . . . ",
". . . . . . . . . . . . - ; % % % % % % % % % % % % % @ - . . . . . . . . . . . ",
". . . . . . . . . . > # % % % % % % % % % % % % % % % % % # , . . . . . . . . . ",
". . . . . . . . . ' % % % % ) % % % ! ~ . { ] ^ % % % % % % % / . . . . . . . . ",
". . . . . . . . ( % % % _ ] % % % % ^ { . . . . : % % < : % % % [ . . . . . . . ",
". . . . . . . } % % ) ] . : % % | % % ^ { . . . . < % % ~ 1 | % % } . . . . . . ",
". . . . . . } % % ^ { . . ) % ^ { ^ % % ^ { . . . ] % % 2 . { ^ % % } . . . . . ",
". . . . . } % % ^ { . . . % % 3 . { < % % ^ { . . . % % 3 . . . : % % 4 . . . . ",
". . . . 5 % % ^ { . . . . % % 3 . . . : % % ^ 6 . . % % 3 . . . { ^ % % 7 . . . ",
". . . . 8 % % | 9 0 0 0 0 % % _ . . . . : % % ) 6 1 % % a . . . . 2 % % b . . . ",
". . . . . c % % d e f f f g % % e f f f f c % % h i % % e f f f j h % % k . . . ",
". . . . . . l % % m n o o p % % q r o o o o l % % % % s o o o t m % % t . . . . ",
". . . . . . . u % % % v w w x % % y z w w w A m % % m B w C D % % % E . . . . . ",
". . . . . . . . F % % % G H I G % % % m J G % % % m K L K M % % % K . . . . . . ",
". . . . . . . . . N m % % % O P Q % % % % % % % O P Q R % % % S T . . . . . . . ",
". . . . . . . . . . . U % % % % % R % % % % % m % % % % % m V . . . . . . . . . ",
". . . . . . . . . . . . W X Y % % % % % % % % % % % % Z ` . . . . . . . . . . . ",
". . . . . . . . . . . . . . .  ...+.R % % % R +.X @.W . . . . . . . . . . . . . ",
". . . . . . . . . . . . . . . . . . . . . . . . . . . . . . . . . . . . . . . . ",
". . . . . . . . . . . . . . . . . . . . . . . . . . . . . . . . . . . . . . . . ",
". . . . . . . . . . . . . . . . . . . . . . . . . . . . . . . . . . . . . . . . ",
". . . . . . . . . . . . . . . . . . . . . . . . . . . . . . . . . . . . . . . . ",
". . . . . . . . . . . . . . . . . . . . . . . . . . . . . . . . . . . . . . . . ",
". . . . . . . . . . . . . . . . . . . . . . . . . . . . . . . . . . . . . . . . ",
". . . . . . . . . . . . . . . . . . . . . . . . . . . . . . . . . . . . . . . . ",
". . . . . . . . . . . . . . . . . . . . . . . . . . . . . . . . . . . . . . . . ",
". . . . . . . . . . . . . . . . . . . . . . . . . . . . . . . . . . . . . . . . ",
". . . . . . . . . . . . . . . . . . . . . . . . . . . . . . . . . . . . . . . . ",
". . . . . . . . . . . . . . . . . . . . . . . . . . . . . . . . . . . . . . . . "};
