/* XPM */
static const char *xine_xpm[]={
"48 48 416 2",
"Qt c None",
"en c #000000",
"ef c #000000",
"ee c #000000",
"d3 c #000000",
"d2 c #000000",
"dL c #000000",
"#v c #000000",
"bv c #010101",
"d# c #030303",
"d1 c #050505",
"dw c #060606",
"ed c #070707",
"dK c #080808",
"ak c #090909",
"d0 c #0a0a0a",
"cQ c #0b0b0b",
"ec c #0c0c0c",
"dJ c #0d0d0d",
"bi c #0e0e0e",
"dZ c #0f0f0f",
"er c #101010",
"eb c #111111",
"ex c #121212",
"cv c #131313",
"eD c #141414",
"dv c #151515",
"a9 c #161616",
"dI c #171717",
"cu c #181818",
"dY c #191919",
"du c #1b1b1b",
"c0 c #1c1c1c",
"de c #1d1d1d",
"ax c #1e1e1e",
"ca c #202020",
"ea c #212121",
"dH c #222222",
"aY c #232323",
"eq c #252525",
"e# c #262626",
"cl c #272727",
"bS c #282828",
"aE c #292929",
"dx c #2a2a2a",
"aN c #2b2b2b",
"au c #2c2c2c",
"aW c #2d2d2d",
"aD c #2e2e2e",
"a4 c #2f2f2f",
".i c #303030",
"at c #313131",
"aV c #323232",
".# c #333333",
"a3 c #343434",
"aM c #353535",
"bb c #363636",
"aU c #373737",
"ay c #383838",
"dp c #393939",
"af c #3a3a3a",
"as c #3b3b3b",
"#Z c #3c3c3c",
"aC c #3d3d3d",
"ae c #3f3f3f",
"aL c #404040",
"#Y c #414141",
"aB c #424242",
"ad c #434343",
"dA c #444829",
".a c #474747",
"dS c #474a29",
".L c #494949",
"a7 c #4b4c29",
".x c #4c4c4c",
"dg c #4c4e2a",
"c2 c #4e4f2a",
"bw c #51512b",
"dB c #55532b",
"bh c #56542c",
"c1 c #57552d",
"dT c #58552c",
"a8 c #5c572d",
".w c #5d5d5d",
"c3 c #5f5a2e",
"a6 c #615b2f",
"d9 c #615c2f",
"dh c #625c2e",
"dC c #665e2f",
"dU c #69602f",
"aX c #69612f",
"dR c #6b6231",
"e. c #6d6230",
"bj c #706530",
"di c #736731",
"dz c #736833",
"dD c #766932",
"dV c #796b32",
"bu c #7a6c34",
"df c #7a6d34",
"b. c #7d6d33",
"aI c #7f7f7f",
"c4 c #806f34",
".M c #808080",
"bg c #817136",
"em c #827136",
"dj c #847234",
"dE c #877334",
"a5 c #897638",
"dW c #8a7635",
"cH c #8a9c8a",
"b# c #8d7836",
"c5 c #907a37",
"dQ c #907b3a",
"bM c #919191",
"av c #929292",
"dk c #947c37",
"#X c #94b094",
"dF c #977f38",
"dy c #977f3a",
"aw c #989898",
".b c #999999",
"dX c #9a8039",
"aK c #9ac79a",
"aZ c #9b8139",
"#J c #9b9b9b",
"bB c #9ba89b",
"cJ c #9c843a",
"bt c #9c843d",
"#6 c #9d9d9d",
"cm c #9eaa9e",
"bl c #9f9f9f",
"c6 c #a0873c",
"bf c #a18940",
"dl c #a28a3e",
".h c #a28d8d",
"#5 c #a4a4a4",
"az c #a4c199",
"aO c #a58d40",
".j c #a5a5a5",
"d8 c #a68d42",
"a0 c #a79041",
".v c #a98181",
"a2 c #a9a9a9",
"cK c #aa9343",
"#7 c #ab9b9b",
"#4 c #ababab",
"dP c #ac9244",
"c7 c #ac9645",
"ac c #adc6ad",
"cI c #adc7ad",
"aT c #aeaeae",
"b4 c #aeb0ae",
"#W c #aed7ae",
"#I c #aedfae",
"dm c #af9946",
"bL c #b09646",
".g c #b0a1a1",
"bx c #b1b1b1",
"aP c #b29c48",
".e c #b2b2b2",
"#u c #b3e1ad",
"bs c #b49b49",
"ce c #b59f4a",
"co c #b5a04b",
".d c #b5b5b5",
"bV c #b6a04a",
".f c #b6b0b0",
"aH c #b6b6b6",
"bk c #b7b7b7",
"bD c #b8a14b",
"ei c #b8a14c",
"cB c #b8a24c",
"cL c #b8a34d",
"be c #b99f4b",
"el c #b9a04b",
"cX c #b9a24b",
".c c #b9b9b9",
"ba c #bababa",
"cA c #bba34c",
"ep c #bba54e",
"cY c #bba54f",
"a. c #bbfabb",
"#U c #bbfcbb",
"#H c #bbfebb",
"c8 c #bca651",
"a1 c #bcbcbc",
"ao c #bcf5bc",
"cd c #bda54d",
"a# c #bdf0bd",
"d7 c #bea44e",
"bU c #bea64e",
"bE c #bea751",
"bQ c #beddbe",
"aq c #bee3be",
"aA c #bee5be",
"ap c #beebbe",
"#V c #bef3be",
"an c #befebb",
"ey c #bfaa53",
"dn c #bfab53",
"aR c #bfbfbf",
"b7 c #bfd6bf",
"cn c #bfd8bf",
"ar c #bfdcbf",
"ab c #bfe2bf",
"aa c #bfe8bf",
"bC c #c0a64f",
"ew c #c0a74f",
"bA c #c0c7c0",
"b5 c #c0cbc0",
"bO c #c0cdc0",
"b6 c #c0d1c0",
"bP c #c0d3c0",
"am c #c1a499",
"dM c #c1aa53",
"aG c #c1c1c1",
"bN c #c1c2c1",
"#f c #c1d3ad",
"#9 c #c1fcbb",
"cW c #c2a850",
"bW c #c2ab53",
"aj c #c2c2c2",
"#T c #c2fbba",
"al c #c39a9a",
"b3 c #c3a850",
"dO c #c3a950",
"cz c #c3a951",
"aQ c #c3ae57",
"bz c #c3c3c3",
"#G c #c3fabb",
"d6 c #c4ad55",
"cf c #c4ad56",
".l c #c4c4c4",
"cc c #c5ab51",
"d5 c #c5ac51",
"by c #c5c5c5",
"bK c #c6ac52",
"cp c #c6b259",
"ag c #c6c6c6",
"bT c #c7ae54",
"ej c #c7af57",
"cC c #c7b057",
".k c #c7c7c7",
"br c #c8af54",
".p c #c8c8c8",
"dd c #c9b156",
"bd c #c9b256",
"ek c #c9b257",
"cZ c #c9b259",
"cM c #c9b55c",
".q c #c9c0c0",
".E c #c9c9c9",
"#l c #cacaca",
"cV c #cbb458",
".V c #cbc0c0",
"#A c #cbcbcb",
"#t c #cbf1bc",
"bF c #ccb45c",
".o c #cccccc",
"cy c #cdb85b",
"c9 c #cdb95f",
"#m c #cdc0c0",
".D c #cdcdcd",
"b2 c #ceb75a",
"bX c #ceb75d",
"#B c #cec1c1",
".2 c #cec6ad",
".U c #cecece",
"bJ c #cfba5c",
"d4 c #cfbb5d",
".9 c #cfcfcf",
"do c #d0bd62",
".n c #d0d0d0",
"cg c #d1b95f",
"bq c #d1bd5e",
"#N c #d1c0c0",
".C c #d1d1d1",
".u c #d2a5a5",
"eC c #d2be60",
".y c #d2d2d2",
".t c #d3afaf",
"cD c #d3bc61",
"bc c #d3bf60",
".r c #d3c0c0",
".T c #d3d3d3",
"bm c #d4be62",
"ck c #d4c262",
".m c #d4d4d4",
"#s c #d4e8bd",
".F c #d5c0c0",
"bG c #d5c164",
"aS c #d5d5d5",
"cq c #d6c368",
"cU c #d6c565",
".B c #d6d6d6",
"#F c #d6e7bd",
".W c #d7bebe",
"bY c #d7c366",
"b1 c #d7c463",
".S c #d7d7d7",
"#S c #d7e5bc",
"bI c #d8c665",
"#z c #d8d8d8",
"ch c #d9c668",
"cN c #d9c76a",
"bp c #d9c866",
"cx c #d9c968",
".8 c #d9d9d9",
"#8 c #d9e3bc",
"#. c #dabfbf",
"cG c #dac968",
"cE c #dac969",
"cj c #daca68",
"cb c #dacb69",
".A c #dadada",
"es c #dbca6d",
"b0 c #dbcb69",
"bn c #dbcb6a",
".R c #dbdbdb",
".K c #dcb8ad",
"d. c #dcca6d",
"bH c #dccd6b",
"eB c #dcce6b",
".N c #dcdcdc",
"#e c #dce0bd",
"#n c #ddbebe",
"bo c #ddce6c",
".z c #dddddd",
".s c #debfbf",
"cF c #decf6d",
"dN c #ded06d",
"#r c #dedfbc",
"ez c #dfce6e",
"aF c #dfce6f",
"bZ c #dfd06d",
"ci c #dfd16e",
".Q c #dfdfdf",
"cT c #e0d36f",
"#E c #e0dcbd",
"#k c #e0e0e0",
".G c #e1bebe",
"dG c #e1d172",
"cw c #e2d571",
".7 c #e2e2e2",
".X c #e4bfbf",
"cr c #e4d474",
"#R c #e4d8bd",
"#0 c #e4e4e4",
".J c #e5afad",
"#O c #e5bebe",
"#d c #e5d5bc",
".P c #e5e5e5",
"cO c #e6d876",
"bR c #e6da75",
"ah c #e6e6e6",
"## c #e7bebe",
".3 c #e7e7e7",
"dc c #e8dc77",
"ev c #e8dd77",
"#j c #e8e8e8",
"#q c #e9d0bc",
"et c #e9db79",
"#1 c #e9e9e9",
"cS c #eadf79",
".H c #ebbebe",
"eh c #ebe17b",
".6 c #ebebeb",
".1 c #eccfbd",
"dq c #ecdf7b",
"#K c #ececec",
"c# c #ede47d",
".O c #ededed",
"#D c #eeccbb",
"b8 c #eee07d",
"cs c #eee27e",
"#w c #eeeeee",
"cP c #efe37f",
"dt c #efe57f",
"#2 c #efefef",
".Y c #f0bdbd",
"eu c #f0e57f",
"#i c #f0f0f0",
"#C c #f1bcbc",
"#c c #f1c9bc",
"eA c #f1e57f",
"dr c #f1e580",
"b9 c #f1e780",
"db c #f1e880",
"#L c #f1f1f1",
"ct c #f2e881",
".5 c #f2f2f2",
"#a c #f3bebe",
"#Q c #f3c5bc",
"eo c #f3ea82",
"cR c #f3eb82",
"#x c #f3f3f3",
"da c #f4eb83",
"#3 c #f4f4f4",
"ds c #f5ec84",
"eg c #f5ed84",
"ai c #f5f5f5",
"c. c #f6ee84",
"#M c #f6f6f6",
".I c #f7bcbc",
"#p c #f7c3ba",
"#y c #f7f7f7",
".0 c #f8c4bb",
".4 c #f8f8f8",
"#P c #f9bcbc",
"#g c #f9f9f9",
"#o c #fbbcbc",
".Z c #fcbbbb",
"aJ c #fdfdfd",
"#b c #febdbb",
"#h c #ffffff",
"QtQtQtQtQtQtQtQtQtQtQtQtQtQtQtQtQtQtQtQtQtQtQtQtQtQtQtQtQtQtQtQtQtQtQtQtQtQtQtQtQtQtQtQtQtQtQtQt",
"QtQtQtQtQtQtQtQtQtQtQtQtQtQtQtQtQtQtQtQtQtQtQtQtQtQtQtQtQtQtQtQtQtQtQtQtQtQtQtQtQtQtQtQtQtQtQtQt",
"QtQtQtQtQtQtQtQtQtQtQtQtQtQtQtQtQtQtQtQtQtQtQtQtQtQtQtQtQtQtQtQtQtQtQtQtQtQtQtQtQtQtQtQtQtQtQtQt",
"QtQtQtQtQtQtQtQtQtQtQtQtQtQtQtQtQtQtQtQtQtQtQtQtQtQtQtQtQtQtQtQtQtQtQtQtQtQtQtQtQtQtQtQtQtQtQtQt",
"QtQtQtQtQtQtQtQtQtQtQtQtQtQtQtQtQtQtQtQtQtQtQtQtQtQtQtQtQtQtQtQtQtQtQtQtQtQtQtQtQtQtQtQtQtQtQtQt",
"QtQtQtQtQtQtQtQtQtQtQtQtQtQtQtQtQtQtQtQtQtQtQtQtQtQtQtQtQtQtQtQtQtQtQtQtQtQtQtQtQtQtQtQtQtQtQtQt",
"QtQtQtQtQtQtQtQtQtQtQtQtQtQtQtQtQtQtQtQtQtQtQtQtQtQtQtQtQtQtQtQtQtQtQtQtQtQtQtQtQtQtQtQtQtQtQtQt",
"QtQtQtQtQtQtQtQtQtQtQtQtQtQtQtQtQtQtQtQtQtQtQtQtQtQtQtQtQtQtQtQtQtQtQtQtQtQtQtQtQtQtQtQtQtQtQtQt",
"QtQtQtQtQtQtQtQtQtQtQtQtQtQtQtQtQtQtQt.#.#.#.#.#.#.#.#QtQtQtQtQtQtQtQtQtQtQtQtQtQtQtQtQtQtQtQtQt",
"QtQtQtQtQtQtQtQtQtQtQtQtQtQtQtQt.a.a.a.b.c.c.d.e.f.g.h.i.i.iQtQtQtQtQtQtQtQtQtQtQtQtQtQtQtQtQtQt",
"QtQtQtQtQtQtQtQtQtQtQtQtQtQtQt.a.j.k.l.m.n.o.p.l.q.r.s.t.u.v.iQtQtQtQtQtQtQtQtQtQtQtQtQtQtQtQtQt",
"QtQtQtQtQtQtQtQtQtQtQtQtQt.w.x.y.p.z.A.B.C.D.E.l.q.F.G.H.I.J.K.i.LQtQtQtQtQtQtQtQtQtQtQtQtQtQtQt",
"QtQtQtQtQtQtQtQtQtQtQtQt.w.M.N.O.P.Q.R.S.T.U.E.l.V.W.X.Y.Z.0.1.2.M.LQtQtQtQtQtQtQtQtQtQtQtQtQtQt",
"QtQtQtQtQtQtQtQtQtQtQt.w.M.3.4.5.6.7.z.8.m.9.E.l.V#.###a#b#c#d#e#f.M.LQtQtQtQtQtQtQtQtQtQtQtQtQt",
"QtQtQtQtQtQtQtQtQtQtQt.x.z#g#h.4#i#j#k.R.B.n#l.l#m#n.H#o#p#q#r#s#t#u#vQtQtQtQtQtQtQtQtQtQtQtQtQt",
"QtQtQtQtQtQtQtQtQtQt.a.T#w#x.4#h#y#w.P.z#z.C#A.l#B.G#C#b#D#E#F#t#G#H#I#vQtQtQtQtQtQtQtQtQtQtQtQt",
"QtQtQtQtQtQtQtQtQt.a#J.U.3#K#L#y#h#M#K#k.A.T.o.l#N#O#P#Q#R#S#t#T#U#V#W#X#vQt#Y#ZQtQtQtQtQtQtQtQt",
"QtQtQtQtQtQtQtQtQt.a.c.Q#k#0#1#2#g#h#3#j.z#4#5#6#7.H#b#q#8#t#9a.a#aaabacadaeaf#hQtQtQtQtQtQtQtQt",
"QtQtQtQtQtQtQtQtQt.aag.N.z.Q#kah.Oai#haj.dae#vakaealam#e#tanaoapaqarad#Yas#hatauQtQtQtQtQtQtQtQt",
"QtQtQtQtQtQtQtQt.#av.8.8.A.N.z.Q.7#1ajawaxay#vak#v#v.Maz#Ha#aAaradaBaC#h.#aDaEaFQtQtQtQtQtQtQtQt",
"QtQtQtQtQtQtQtQt.#aG.B.B.S#z.8.R.z.QaHax.eaIaJaJaI#v#vaKaaaradadaL#haM.iaNaOaPaQQtQtQtQtQtQtQtQt",
"QtQtQtQtQtQtQtQt.#aR.T.T.maSaS.B#zaTaeayaI.zQtQt.zaI#vaeadad#Y#haUaVaWaXaYaxaZa0QtQtQtQtQtQtQtQt",
"QtQtQtQtQtQtQtQt.#a1.n.n.C.C.C.y.Ta2#v#vaJQtQtQtQt#hadadad#hafa3a4a5a6a7a8a9b.b#QtQtQtQtQtQtQtQt",
"QtQtQtQtQtQtQtQt.#ba.D.D.D.D.D.D.D#5akakaJQtQtQtadadad#hasbbatbcbdbebfbgbhbiakbjQtQtQtQtQtQtQtQt",
"QtQtQtQtQtQtQtQt.#bk#l#l#l.E.E.p.pblae#vaI.zadadad#haCay.#bmbnbobpbqbrbsbtbubvbwQtQtQtQtQtQtQtQt",
"QtQtQtQtQtQtQtQt.#bx.k.kagagby.lbzbAbB#vadadad#haLasaMbCbDbEbFbGbobHbIbJbKbL#ZaUQtQtQtQtQtQtQtQt",
"QtQtQtQtQtQtQtQt.#bMby.lbzbNbAbObPbQadadad#h#Y#ZaUbRaWbSbTbUbVbWbXbYbZb0b1b2b3a4QtQtQtQtQtQtQtQt",
"QtQtQtQtQtQtQtQtQt.ib4bAb5b6b7bQadadad#hadaeafb8b9c.c#cacbbJcccdcecfcgchcicjckclQtQtQtQtQtQtQtQt",
"QtQtQtQtQtQtQtQtQt.icmbPcnbQadadad#had#YascocpcqcrcsctcucvcwcxcyczcAcBcCcDcEcFcGQtQtQtQtQtQtQtQt",
"QtQtQtQtQtQtQtQtQt.icHcIadadad#hadaBaCb.b#cJcKcLcMcNcOcPcQcRcScTcUcVcWcXcYcZc0a9QtQtQtQtQtQtQtQt",
"QtQtQtQtQtQtQtQtQtQtadadad#hadadaLc1c2c3bjc4c5c6c7c8c9d.d##YdadbdcbZckdddecucv#hQtQtQtQtQtQtQtQt",
"QtQtQtQtQtQtQtQtadadad#hadad#YbraUaVdfdgbwdhdidjdkdldmdndodpdqdrdsdtcadudv#hcQdwQtQtQtQtQtQtQtQt",
"QtQtQtQtQtQtQtQtad#hadadadbobHbIbJdxbLdydzdAdBdCdDdEdFaOaPataudGdHc0dI#hdJdKd#dLQtQtQtQtQtQtQtQt",
"QtQtQtQtQtQtQtQtadadadbVdMbXbYdNb0dHdedOdPdQdRdSdTdUdVdWdXa0aYaxdY#hdZd0d1dLd2d3QtQtQtQtQtQtQtQt",
"QtQtQtQtQtQtQtQtadcbd4d5cdced6cgchcidvckcVd7d8a5d9a7a8e.e#eac0#hebeceddLd2d3eeefQtQtQtQtQtQtQtQt",
"QtQtQtQtQtQtQtQtegehcwcxcyczcAeiejcDdJdKcGbcekelbfembSdHde#hcvbiakdLd2d3eeefenQtQtQtQtQtQtQtQtQt",
"QtQtQtQtQtQtQtQtcPeocRcScTcUcVcWcXepcZadbnbobpbqdxeqca#hdvercQdLd2d3eeefenQtQtQtQtQtQtQtQtQtQtQt",
"QtQtQtQtQtQtQtQteseteudadbevbZckbdewbDasbbbGaucldH#hdIexdJdLd2d3eeefenQtQtQtQtQtQtQtQtQtQtQtQtQt",
"QtQtQtQtQtQtQtQteydoezdqeAdseubReBeCbTbUaDaEaY#hdYeDdZdLd2d3eeefenQtQtQtQtQtQtQtQtQtQtQtQtQtQtQt",
"QtQtQtQtQtQtQtQtQtQtQtQtQtQtQtQtQtQtQtQtQtQtQtQtQtQtQtQtQtQtQtQtQtQtQtQtQtQtQtQtQtQtQtQtQtQtQtQt",
"QtQtQtQtQtQtQtQtQtQtQtQtQtQtQtQtQtQtQtQtQtQtQtQtQtQtQtQtQtQtQtQtQtQtQtQtQtQtQtQtQtQtQtQtQtQtQtQt",
"QtQtQtQtQtQtQtQtQtQtQtQtQtQtQtQtQtQtQtQtQtQtQtQtQtQtQtQtQtQtQtQtQtQtQtQtQtQtQtQtQtQtQtQtQtQtQtQt",
"QtQtQtQtQtQtQtQtQtQtQtQtQtQtQtQtQtQtQtQtQtQtQtQtQtQtQtQtQtQtQtQtQtQtQtQtQtQtQtQtQtQtQtQtQtQtQtQt",
"QtQtQtQtQtQtQtQtQtQtQtQtQtQtQtQtQtQtQtQtQtQtQtQtQtQtQtQtQtQtQtQtQtQtQtQtQtQtQtQtQtQtQtQtQtQtQtQt",
"QtQtQtQtQtQtQtQtQtQtQtQtQtQtQtQtQtQtQtQtQtQtQtQtQtQtQtQtQtQtQtQtQtQtQtQtQtQtQtQtQtQtQtQtQtQtQtQt",
"QtQtQtQtQtQtQtQtQtQtQtQtQtQtQtQtQtQtQtQtQtQtQtQtQtQtQtQtQtQtQtQtQtQtQtQtQtQtQtQtQtQtQtQtQtQtQtQt",
"QtQtQtQtQtQtQtQtQtQtQtQtQtQtQtQtQtQtQtQtQtQtQtQtQtQtQtQtQtQtQtQtQtQtQtQtQtQtQtQtQtQtQtQtQtQtQtQt",
"QtQtQtQtQtQtQtQtQtQtQtQtQtQtQtQtQtQtQtQtQtQtQtQtQtQtQtQtQtQtQtQtQtQtQtQtQtQtQtQtQtQtQtQtQtQtQtQt"};
