/* XPM */
static char *ratiophoto[] = {
/* columns rows colors chars-per-pixel */
"32 32 15 1",
"  c black",
". c #333366669898",
"X c #666666669898",
"o c #666698989898",
"O c #989898989898",
"+ c #98989898CBCB",
"@ c #9898CBCBCBCB",
"# c #C0C0C0C0C0C0",
"$ c #CBCBCBCBFFFF",
"% c #CBCBFFFFFFFF",
"& c gray88",
"* c gray94",
"= c #F8F8F8F8F8F8",
"- c gray100",
"; c None",
/* pixels */
";;;;;;;;;;;;;;;;;;;;;;;;;;;;;;;;",
";;;;;;;;;;;;;;;;;;;;;;;;;;;;;;;;",
";;;;;;;;;;;;;;;; ;;;;;;;;;;;;;;;",
";;;;;;;;;;;;;;; + ;;;;;;;;;;;;;;",
";;;;;;;;;;;;;;; # ;;;;;;;;;;;;;;",
";;;;;;;;;;;;;; #++ ;;;;;;;;;;;;;",
";;;;;;;;;;;;;; $#+ ;;;;;;;;;;;;;",
";;;;;;;;;;;;; @++++ ;;;;;;;;;;;;",
";;;;;;;;;;;;; &-@$o ;;;;;;;;;;;;",
";;;;;;;;;;;; &&=#oo@ ;;;;;;;;;;;",
";;;;;;;;;;;; &$=#o+$ ;;;;;;;;;;;",
";;;;;;;;;;; $&&*$o+& ;;;;;;;;;;;",
";;;;;;;;;;; &-$*$o+% ;;;;;;;;;;;",
";;;;;;;;;;; --$*$++%@ ;;;;;;;;;;",
";;;;;;;;;; X--&%$+o+# ;;;;;;;;;;",
";;;;;;;;;; +--&%&+o+$@ ;;;;;;;;;",
";;;;;;;;;; ---@=&@X#*@ ;;;;;;;;;",
";;;;;;;;; X---@-%#o$=$ ;;;;;;;;;",
";;;;;;;;; +---@-*$+%-%  ;;;;;;;;",
";;;;;;;;; &&--O--&+$--$ ;;;;;;;;",
";;;;;;;; .&=&-=--+oo+-+X ;;;;;;;",
";;;;;;;; X=+---=-+=$+O#* ;;;;;;;",
";;;;;;;; #-&#---o--*+o$% ;;;;;;;",
";;;;;;;; o-%+---o--&oo=- ;;;;;;;",
";;;;;;;; X@$+##*o--$oo-- ;;;;;;;",
";;;;;;;;; ##$+@$o--@oo- ;;;;;;;;",
";;;;;;;;; .#--%$-%-+@# ;;;;;;;;;",
";;;;;;;;;; +$--@#X#-$ ;;;;;;;;;;",
";;;;;;;;;;; X#&@oo#@ ;;;;;;;;;;;",
";;;;;;;;;;;; X##.@$ ;;;;;;;;;;;;",
";;;;;;;;;;;;;  o+  ;;;;;;;;;;;;;",
";;;;;;;;;;;;;;;  ;;;;;;;;;;;;;;;"
};
