/* XPM */
static char *rphoto[] = {
/* columns rows colors chars-per-pixel */
"32 32 208 2 ",
"   c #006E006E006E",
".  c #0C0C0C0C0A8B",
"X  c gray11",
"o  c #36F736F736F7",
"O  c #56563F3F0909",
"+  c #6FF05DDE38B9",
"@  c #323247476969",
"#  c #4ACB494947C8",
"$  c #51D24F4F4C4C",
"%  c #47474D4D5A5A",
"&  c #595959595919",
"*  c #66665B284714",
"=  c #61615D5D5A5A",
"-  c #6F6F64644D4D",
";  c #76766B6B56D7",
":  c #5C5C5E5E6B6B",
">  c #454563637A7A",
",  c #65E6656563A3",
"<  c #6B6B699C66CD",
"1  c #77F873736EEF",
"2  c #65E66A6A7A7A",
"3  c #76767542760F",
"4  c #98D865A50000",
"5  c #9E3B6B7F02B4",
"6  c #9F9F6F6F0909",
"7  c #A19172320B0B",
"8  c #A9A97C7C1414",
"9  c #84DA6C16398F",
"0  c #8E8E71F23232",
"q  c #864D72C84F32",
"w  c #88DE75CB4AA0",
"e  c #86E2751953E6",
"r  c #8A0A777754D5",
"t  c #8E8E7BD150FB",
"y  c #8A8A7F7F6767",
"u  c #81817E287822",
"i  c #B7B784840000",
"p  c #ADAD82821D1D",
"a  c #B6368B0B1818",
"s  c #BDBD90901010",
"d  c #BD5693FA1BE9",
"f  c #9D9D80803737",
"g  c #B35D8B8B2626",
"h  c #B6608E382828",
"j  c #A76788C83B3B",
"k  c #B7B792203B1E",
"l  c #B838931339BA",
"z  c #CACA97970000",
"x  c #CC0B9BDB09CA",
"c  c #C1D399AB1F0D",
"v  c #CACA9E9E1818",
"b  c #D4D4ABAB1E1E",
"n  c #C2289A6722F0",
"m  c #C5C5A2A22B2B",
"M  c #D62BAFAF23CE",
"N  c #D8D8B60B2CD7",
"B  c #CA4AAA2A35B6",
"V  c #D429B2B23434",
"C  c #DCDCBBBB348A",
"Z  c #D7D7B9B93C7C",
"A  c #DEDEC0C03B3B",
"S  c #9797840455D6",
"D  c #BA3A96D642C3",
"F  c #B2B297974D4D",
"G  c #A12186865555",
"H  c #B8B8A0A04F4F",
"J  c #9A0582EE62B3",
"K  c #939387876DEE",
"L  c #9C1C8F0F6BEC",
"P  c #9D1D929269EA",
"I  c #A2F8953F6AC0",
"U  c #AFAF9F9F7272",
"Y  c #BB3BA6A673F4",
"T  c #CE4EB2B24343",
"R  c #D9D9BEBE4585",
"E  c #D2D2B83849CA",
"W  c #C242A8A85757",
"Q  c #D4D4BDBD5555",
"!  c #C7C7AEAE6C6C",
"~  c #CACAB7B76D6D",
"^  c #CDCDBDBD7474",
"/  c #E2E2BCBC7C7C",
"(  c #DFDFC5C54646",
")  c #DADAC2174CA2",
"_  c #DE88C8C85555",
"`  c #D7BDC45D5EAB",
"'  c #E262C7C74848",
"]  c #E4DACACA4A72",
"[  c #E1A1CE0D5D1D",
"{  c #E868D3125757",
"}  c #EB51D9A65F5F",
"|  c #D6D6C5C5751F",
" . c #E73CD6806565",
".. c #EC03D9FE60E7",
"X. c #E4E4CFCF7B7B",
"o. c #EFEFE3E36F6F",
"O. c #F1F1E5E57676",
"+. c #F3F3E9E97979",
"@. c #35B667E89696",
"#. c #61615F5F9898",
"$. c #5B5B71718787",
"%. c #7BFC74F58F8F",
"&. c #7B7B7878A1A1",
"*. c #25257E7ED2D2",
"=. c #72728686A3A3",
"-. c #61618D8DB8B8",
";. c #41418E8EDCDC",
":. c #7373A5A5D6D6",
">. c #6363A525E464",
",. c #7B7BB8B8F3F3",
"<. c #858585858505",
"1. c #8DE38D378D8D",
"2. c #9842953F8933",
"3. c #8585832D9595",
"4. c #989896969292",
"5. c #9C9C9CF29BF1",
"6. c #A3A39B9B8A8A",
"7. c #A2A29E9E9090",
"8. c #9E9EAAAA9797",
"9. c #A7A7A0A08E8E",
"0. c #B7B7ABAB8888",
"q. c #A7A7A3239818",
"w. c #B1B1AB2B9696",
"e. c #BABAB3B39B9B",
"r. c #8D0D8A8AACAC",
"t. c #98189919AC6C",
"y. c #88888909B8B8",
"u. c #953F93E9B409",
"i. c #A3D6A43DA3A3",
"p. c #A751A650A7A7",
"a. c #ACACAB55A4A4",
"s. c #AB72ABABAA8D",
"d. c #B6F6B5B5ACAC",
"f. c #AB2BAE2EB232",
"g. c #B333B3B3B373",
"h. c #BB65BABAB660",
"j. c #BD12BCBCBC91",
"k. c #C46EB60B8630",
"l. c #C9C9BBBB9090",
"z. c #BFBFC0C0BFBF",
"x. c #DB9BCE8E8E8E",
"c. c #E136D2A7842E",
"v. c #E464D9D98707",
"b. c #E58FDE339C46",
"n. c #F5F5EDED8181",
"m. c #F7F7F0F08484",
"M. c #F8F8F5F58C8C",
"N. c #EBEBE5659999",
"B. c #F2F2EDED9A44",
"V. c #FBFBFAFA9696",
"C. c #F7F7F3F39F1F",
"Z. c #FC62FBC89D36",
"A. c #C444C7C7B838",
"S. c #E1E1D7D7AAAA",
"D. c #E18BDA2FB1B1",
"F. c #E338DB85BA64",
"G. c #F8F8F6F6A4FA",
"H. c #FBC8FAC7A13A",
"J. c #FAFAF8F8ACAC",
"K. c #FBB2FA42B421",
"L. c #F6B6F3B3BBBB",
"P. c #F8F8F6F6BEBE",
"I. c #FCFCFCFCBDFD",
"U. c #96969696C973",
"Y. c #8C8C8C8CD0D0",
"T. c #953F94EADB30",
"R. c #9292ADADCBCB",
"E. c #BFBFCBCBD2D2",
"W. c #9D9DC7C7EFEF",
"Q. c #9898CBCBFEFE",
"!. c #B0B0D1D1EFEF",
"~. c #B232D656F5F5",
"^. c #C477C45DC42A",
"/. c #C9C9C9C9C7C7",
"(. c #CBABCBCBCC0B",
"). c #CCCCCECED252",
"_. c #D49DD4AFD478",
"`. c #D4D4D757DADA",
"'. c #D7D7DA5ADBDB",
"]. c #DD01DD4ADD94",
"[. c #EB95E690C71C",
"{. c #E993E53ACD77",
"}. c #F74CF2F2C61B",
"|. c #FD5FFC99C461",
" X c #F837F4B4CB0A",
".X c #FEE1FEE1CC5A",
"XX c #ECECEAEAD7D7",
"oX c #F272ECC1DCDC",
"OX c #F729F38CD56E",
"+X c #FE5AFE44D3D3",
"@X c #F6DFF309DC96",
"#X c #F8F8F6F6D8D8",
"$X c #FEE0FEE0DC17",
"%X c #CDCDCCCCE0E0",
"&X c #D959DE5EE969",
"*X c #DEDEE3E3E767",
"=X c #DDDDEE43FCFC",
"-X c #E383E443E4A4",
";X c #EA29EBABE868",
":X c #F4F4F0F0E38D",
">X c #F9F9F7F7E2E2",
",X c #FD7DFD6AE262",
"<X c #F6F6F2F2E9E9",
"1X c #FD3CFC7CEDED",
"2X c #E868EF6FF575",
"3X c #F373F373F272",
"4X c #FED9FED9F418",
"5X c #FFE7FFE7FFD2",
/* pixels */
"5XO 4 5 m.m.m.m.m.m.m.m.m.m.m.m.m.m.m.m.m.m.m.m.m.m.C.. 5X5X5X5X",
"5X6 4 4 a ] ] ] ] ] ] ] ] ] ] ] ] ] ] ] ] ] ] ] ] ] ] 1 X 5X5X5X",
"5X5 7 4 5 v v v v v v v v v v v v v v v v v v v v v v q o 5X5X5X",
"5X5 z i l <X<X<X<XoXoXoXoXoX@X:X@X:X@XOXoX#X@X#XOXOXOXS o 5X5X5X",
"5X5 z i l 5X4X&Xs.i.r.#.3.d.[. X>X$X,X,X,X$X$X+X$X+X+XJ o 5X5X5X",
"5X5 x i l 5X4Xh.a.`.&X%X*X]./.z.e.[.OX$X$X$X$X+X+X+X+XJ o 5X5X5X",
"5X5 x i k 5X5XoX0.+ + u q.j._.-Xh.3 w.D.OX+X+X+X+X+X.XJ o 5X5X5X",
"5X5 b i k 5X5X1XXXF.l.I w * $ , 3 r.u.r.9.F.}..X.X.X.XJ o 5X5X5X",
"5X5 M s k 4X4X4X4X,X@X{.D.0.G - & # : Y.U.3.w.D.}..X.XJ o 5X5X5X",
"5X5 C d k 4X4X1X1X>X{.A.a.5.z.E.W.:.-.$.2 &.Y.3.x.P..XJ o 5X5X5X",
"5X6 C c k 4XoXXXh.s.g.(.&X~.=X=XQ.,.>.;.*.@.2 , ^ L.|.J o 5X5X5X",
"5X6 ] n k >XE.-X*X!.~.2X2X~.=X=XQ.,.>.-.=.y.T.1 ! L.I.J o 5X5X5X",
"5X5 ] m D >Xp.'.*X-X-X-X-X~.=X=XW.R.t.u.U.T.&.9 ^ L.I.J o 5X5X5X",
"5X7 { B D >X9.h.^.g.^.].].&X&X).f.t.U.U.%.9 f Y b.K.I.J o 5X5X5X",
"5X7 } B D 1X[.U w + * s.;XA.).p.t.t.t.; ; ; I k.b.K.K.J o 5X5X5X",
"5X6 o.T D ,X@X[.D.x.k.y g.8.s.g.(._.'.E.5.1.3 < L N.K.J o 5X5X5X",
"5X6 O.T l ,X,X$X#XOX}.S.L 3X].a.1.5.a.1.i.<., 3 r v.K.t o 5X5X5X",
"5X7 n.E l ,X,X$X+X$X+X}.5._.).'.s.f.h._.p.i.z.g.t c.K.y o 5X5X5X",
"5X7 M.Q l $X$X$X$X+X+X Xu _._._./.z.(.3 # $ 4.^.t c.J.G o 5X5X5X",
"5X7 V.` h $X$X$X+X+X+X Xu )._.`./.).s.& @.> = /.t c.G.y o 5X5X5X",
"5X7 V.` g #X$X+X+X.X+X|.9.(.).).z.(.i.$ @ % < _.S c.G.J o 5X5X5X",
"5X7 V.` g +X+X+X+X+X.XP.2./.(.(.j._.s.& # # p.-Xt c.G.J o 5X5X5X",
"5X7 V.` p +X+X.X.X.X.XP.1.A.j.^.z.'.`.s.1.1.q.I j c.H.G o 5X5X5X",
"5X7 V.` 8 L.+X+X.X.X.XI.0.(./.j./.3X;X7.q 0 j F | B.H./ o 5X5X5X",
"5X7 V.` h x..X.X.X.X|.I.b.I w.p.6.K 0 j H ~ X.N.B.H.Z.G.* 5X5X5X",
"5X7 V.` E a .X.X|..X|.I.K.N.| F j H | v.B.G.Z.Z.H.H.Z.Z.| = 5X5X",
"5X7 V.` R x d n n n n d n n d d d d d c d d n c d n c c G e o 5X",
"5X7 V.` ' N } } ..} } } ........} ..} } } o.............Y .   5X",
"5X9 X.` ' z V V V Z Z R R R R ) ) ) ) _ [ [ [ [ _  . .P K < 5X5X",
"5X  , W { M M N N C C A ( ( ] ] { } } o.....O.+.+.+.m.<     5X5X",
"5X5X5Xo e q q q q q q q q e e e e e w e e e r e r r r , 5X5X5X5X",
"5X5X5X5X                                                5X5X5X5X"
};
