/* XPM */
static char *xpm_FilesPhoto[] = {
/* columns rows colors chars-per-pixel */
"32 32 256 2",
"   c #000000",
".  c #0C0C0A",
"X  c gray11",
"o  c #363636",
"O  c #324769",
"+  c #563F09",
"@  c #6C5C3C",
"#  c #735F35",
"$  c #4A4947",
"%  c #474D5A",
"&  c #4F5153",
"*  c #514F4C",
"=  c #52504F",
"-  c #565656",
";  c #5B5B5B",
":  c #5C5E6B",
">  c #45637A",
",  c #62584A",
"<  c #6A5D43",
"1  c #665B47",
"2  c #615D5A",
"3  c #6D624B",
"4  c #71664F",
"5  c #766B56",
"6  c #656563",
"7  c #6D6B66",
"8  c #696968",
"9  c #6A6663",
"0  c #676876",
"q  c #646C7E",
"w  c #726E75",
"e  c #7D7868",
"r  c #767475",
"t  c #2F6591",
"y  c #3C6A9B",
"u  c #257ED2",
"i  c #5B7187",
"p  c #615F98",
"a  c #7A7285",
"s  c #7D7799",
"d  c #7B78A1",
"f  c #608FBE",
"g  c #628BB2",
"h  c #7286A3",
"j  c #418EDC",
"k  c #73A5D6",
"l  c #63A4E3",
"z  c #7BB8F3",
"x  c #986500",
"c  c #9D6B02",
"v  c #9F6F09",
"b  c #8C6E2E",
"n  c #846B39",
"m  c #907536",
"M  c #A0710B",
"N  c #A97C14",
"B  c #836F44",
"V  c #85724E",
"C  c #88754A",
"Z  c #867453",
"A  c #897754",
"S  c #8E7B50",
"D  c #917E55",
"F  c #8A7F67",
"G  c #807D79",
"H  c #827E74",
"J  c #9D8037",
"K  c #AD821D",
"L  c #B78400",
"P  c #BB8D0C",
"I  c #BD9010",
"U  c #BC931B",
"Y  c #B58A18",
"T  c #AF8625",
"R  c #A6883B",
"E  c #B18A29",
"W  c #B58D20",
"Q  c #B48D32",
"!  c #BE9621",
"~  c #B7913A",
"^  c #B79239",
"/  c #978355",
"(  c #8E8163",
")  c #998262",
"_  c #9B8E6B",
"`  c #988D78",
"'  c #9C9269",
"]  c #A08758",
"[  c #A18552",
"{  c #B99642",
"}  c #B2974D",
"|  c #B39A52",
" . c #A2946A",
".. c #AF9F72",
"X. c #B8A04F",
"o. c #BEAA69",
"O. c #B7A27E",
"+. c #CA9700",
"@. c #CC9D0D",
"#. c #CA9906",
"$. c #C1991E",
"%. c #CA9E18",
"&. c #C19922",
"*. c #D4AB1E",
"=. c #C5A22B",
"-. c #C8A731",
";. c #CBAC3A",
":. c #D5AF23",
">. c #D8B52C",
",. c #D3B234",
"<. c #DCBB34",
"1. c #D7B93C",
"2. c #C1A857",
"3. c #CDB243",
"4. c #D9BE45",
"5. c #D2B749",
"6. c #D4BD55",
"7. c #C7AE6C",
"8. c #CAB76D",
"9. c #CDBD74",
"0. c #E2BC7C",
"q. c #DEC03B",
"w. c #DFC546",
"e. c #DAC14C",
"r. c #D6C35E",
"t. c #DEC957",
"y. c #DCC551",
"u. c #D6C574",
"i. c #E3CA4A",
"p. c #E1C748",
"a. c #E0CD5C",
"s. c #E7D155",
"d. c #E8D358",
"f. c #EAD85F",
"g. c #E4CF7B",
"h. c #EBD960",
"j. c #E6D565",
"k. c #EFE36F",
"l. c #F3E979",
"z. c #F1E576",
"x. c #858584",
"c. c #8D8C8D",
"v. c #858295",
"b. c #908D9F",
"n. c #979488",
"m. c #9C9C9B",
"M. c #989692",
"N. c #8C8AAC",
"B. c #8888B8",
"V. c #9C9EAE",
"C. c #9393A9",
"Z. c #9291B3",
"A. c #9998B3",
"S. c #9EAA97",
"D. c #A39B8A",
"F. c #A29E90",
"G. c #A6A08F",
"H. c #A8A08D",
"J. c #A0A09F",
"K. c #A9A395",
"L. c #B7AB88",
"P. c #B1AA96",
"I. c #BAB39B",
"U. c #A3A3A3",
"Y. c #A5A5A8",
"T. c #AAABA9",
"R. c #ABA9A4",
"E. c #AAADB1",
"W. c #AFB6B9",
"Q. c #B0B1AF",
"!. c #BCB8A9",
"~. c #B2B3B2",
"^. c #BABAB5",
"/. c #BCBCBB",
"(. c #B4B9BB",
"). c #8C8CD0",
"_. c #9696C8",
"`. c #9494DA",
"'. c #92ADCB",
"]. c #92BFEC",
"[. c #BFC0BF",
"{. c #9DC7EF",
"}. c #98CBFE",
"|. c #BFCBD2",
" X c #B0D1EF",
".X c #B1D5F5",
"XX c #C3B585",
"oX c #C9BB90",
"OX c #DCCC8B",
"+X c #D3C595",
"@X c #DDD281",
"#X c #DFD497",
"$X c #C3C7B7",
"%X c #E0D183",
"&X c #E3D986",
"*X c #E4DD9B",
"=X c #E1D7AA",
"-X c #E0D9B1",
";X c #E2DCBA",
":X c #E2D7B9",
">X c #EBE499",
",X c #F5ED81",
"<X c #F2ED99",
"1X c #F7F084",
"2X c #F8F58C",
"3X c #F6F09F",
"4X c #FBFA96",
"5X c #FBFA9C",
"6X c #F8F69E",
"7X c #EAE3A0",
"8X c #F6EEA7",
"9X c #F8F6A4",
"0X c #FAF9A0",
"qX c #FAF8AC",
"wX c #F5F2BB",
"eX c #FAF9B3",
"rX c #FCFCBD",
"tX c #F8F6BE",
"yX c #C3C3C3",
"uX c #CACBCB",
"iX c #C9C9C7",
"pX c #CCCED1",
"aX c #D3D3D3",
"sX c #D7D9DB",
"dX c #D8D7D8",
"fX c #DCDCDC",
"gX c #D0D6DC",
"hX c #CDCCE0",
"jX c #D8DDE8",
"kX c #DEE3E6",
"lX c #DDEDFC",
"zX c #E8E4CC",
"xX c #EAE5C6",
"cX c #ECEAD7",
"vX c #F1EBDC",
"bX c #F6F2C5",
"nX c #F6F3CB",
"mX c #F8F4C9",
"MX c #FCFBC3",
"NX c #FDFDCB",
"BX c #F6F2D4",
"VX c #F5F2DB",
"CX c #F8F6D8",
"ZX c #FDFDD3",
"AX c #FDFDDB",
"SX c #E2E3E3",
"DX c #E9EAE7",
"FX c #E7EEF4",
"GX c #F4F0E2",
"HX c #F6F2E9",
"JX c #FCFCE1",
"KX c #FCFBED",
"LX c #F9F7E2",
"PX c #FDFDF3",
"IX c #FEFEFE",
"UX c #F2F2F1",
/* pixels */
"IX+ x c 1X1X1X1X1X1X1X1X1X1X1X1X1X1X1X1X1X1X1X1X1X1X8X. IXIXIXIX",
"IXv x x Y i.i.i.i.i.i.i.i.i.i.i.i.i.i.i.i.i.i.i.i.i.i.e X IXIXIX",
"IXc M x c %.%.%.%.%.%.%.%.%.%.%.%.%.%.%.%.%.%.%.%.%.%.B o IXIXIX",
"IXc +.L Q HXHXHXHXvXvXvXvXvXVXVXVXVXVXVXVXBXBXBXBXBXBX) o IXIXIX",
"IXc +.L ^ IXIXfXQ.V.N.p h !.zXnXLXJXJXJXJXJXAXAXZXZXAX) o IXIXIX",
"IXx #.L ^ IXIX^.P.dXfXhXfXkXyX[.I.xXCXAXAXAXAXZXZXZXZX) o IXIXIX",
"IXc @.L ~ IXIXvXL.@ < H K./.aXcX^.r P.:XnXZXZXZXZXZXNX) o IXIXIX",
"IXc *.P ~ IXPXKXvX:XoX .B < * 6 w N.Z.b.H.;XmXNXNXNXNX) o IXIXIX",
"IXc :.I ~ PXPXPXPXJXVXzX-XL.] 3 ; & : B._.v.K.;XbXNXNX) o IXIXIX",
"IXc <.U ~ PXPXPXKXLXxX[.T.U.[.|.].k g i q d ).v.#XtXNX) o IXIXIX",
"IXc <.&.~ PXvXcX^.T.W.iXkX.XlXlX}.z l j u y 0 8 8.wXMX) o IXIXIX",
"IXv i.&.~ KX[.SXkX X.XFXFX.XlXlX}.z l f h B.`.r 7.wXrX) o IXIXIX",
"IXc i.=.{ LXR.dXfXDXDXkXkX.XlXlX{.'.V.Z.`.`.s n 9.wXrX) o IXIXIX",
"IXM d.-.{ LXH.Q.yXQ.yXfXfXgXsXpXE.V._._.a n m 7.*XeXrX) o IXIXIX",
"IXv h.;.{ JXzXO.C # 1 T.DXiXpXY.C.A.C.5 4 5  .XX*XeXeX) o IXIXIX",
"IXM k.3.{ JXLXzX-X+XXX( ~.S.T.Q.pXdXfXyXS.c.r 8 _ >XeX) o IXIXIX",
"IXM l.3.^ JXJXAXZXBXbX=X` HXsXT.c.m.T.c.J.x.6 r A &XeXD o IXIXIX",
"IXM l.5.^ JXJXAXAXAXZXnXM.aXaXdXT.E.~.aXY.U.yX~.S %XrX) o IXIXIX",
"IXM 2X6.^ JXAXAXZXZXZXmX` pXaXdXiX[.uXr * * M.yXS %XqXD o IXIXIX",
"IXM 4Xr.E AXAXAXAXZXZXnXr pXaXaXiXaXT.- t > 2 iXD %X9XD o IXIXIX",
"IXM 4Xr.T AXZXZXZXZXNXbXG.uXaXpX[.uXJ.= O % 7 aXD %X9X) o IXIXIX",
"IXM 4Xr.T AXZXZXZXNXNXrXn.yXiXuX/.aXT.- $ * Y.SXS %X9X) o IXIXIX",
"IXM 4Xr.K ZXZXZXNXNXNXrXn.[./.yX[.sXdXT.c.c.K._ R &X0X] o IXIXIX",
"IXM 5Xr.N wXNXNXNXNXNXbXL.uXiX/.iXUXDXF.V b R | u.<X0X0.o IXIXIX",
"IXM 4Xr.W OXNXNXNXMXMXrX*X .P.Y.G.( m R X.8.g.>X<X6X5X9X, IXIXIX",
"IXM 5Xr.5.Y NXNXNXNXMXrXeX7Xu.} ~ X.u.&X<X6X5X6X5X5X5X5Xg.; IXIX",
"IXM 4Xr.4.@.U &.! &.! U U &.&.U ! U ! $.! U &.&.&.&.U U [ V o IX",
"IXM 4Xr.p.>.h.f.h.h.h.f.h.h.f.f.f.j.h.h.h.h.h.h.h.h.h.h.O..   IX",
"IXn g.r.p.#.,.,.,.1.1.1.1.4.e.e.e.e.y.t.j.t.a.a.t.j.j.' _ 8 IXIX",
"IX  6 2.s.:.:.:.<.<.<.q.w.w.i.i.s.d.f.h.h.h.k.l.l.l.1X7     IXIX",
"IXIXIXo Z V V V V V V V V Z Z Z Z Z Z Z Z Z A Z Z Z A 6 IXIXIXIX",
"IXIXIXIX                                                IXIXIXIX"
};
