/* XPM */
static const char *xpm_mode_inclinaison[] = {
/* columns rows colors chars-per-pixel */
"16 16 37 1",
"  c black",
". c #2C2C2C",
"X c #2F2F2F",
"o c gray25",
"O c #464646",
"+ c gray31",
"@ c #555555",
"# c #5A5A5A",
"$ c #656565",
"% c gray40",
"& c #676767",
"* c #686868",
"= c #6C6C6C",
"- c #6F6F6F",
"; c #808080",
": c gray53",
"> c #898989",
", c #8D8D8D",
"< c #929292",
"1 c #959595",
"2 c #979797",
"3 c gray60",
"4 c #9B9B9B",
"5 c gray62",
"6 c gray75",
"7 c #C5C5C5",
"8 c gray78",
"9 c #C8C8C8",
"0 c #CBCBCB",
"q c LightGray",
"w c gray90",
"e c gray98",
"r c #FBFBFB",
"t c gray99",
"y c #FEFEFE",
"u c gray100",
"i c None",
/* pixels */
"iiii iiiiiiiiiii",
"iiii;@iiiiiiiiii",
"iiii;u@iiiiiiiii",
"iiii;uu@iiqiiiii",
"iiii;uuu@iXiiiii",
"iiii;uu6; &47iii",
"iiii;6;;ii&e49ii",
"iiiioi u i&uu2ii",
"iiiiiii;;@&uuu4i",
"iiiiii;6;u&uuuu5",
"iiiiii;;u;&uwu&&",
"iiiiiii;6;&w.e&i",
"iiiiiii;77O+i&92",
"iiiiiii@u-4#i,0-",
"iiiiiiiiii@6iq>9",
"iiiiiiiiiii; i<:"
};
