/* XPM */
static char *xpm_portrait[] = {
/* columns rows colors chars-per-pixel */
"16 16 3 1",
"  c black",
". c #808080",
"X c None",
/* pixels */
"XXXXXXXXXXXXXXXX",
"XXX          XXX",
"XXX ........ .XX",
"XXX .XXXXXXX .XX",
"XXX .XXXXXXX .XX",
"XXX .XXXXXXX .XX",
"XXX .XXXXXXX .XX",
"XXX .XXXXXXX .XX",
"XXX .XXXXXXX .XX",
"XXX .XXXXXXX .XX",
"XXX .XXXXXXX .XX",
"XXX .XXXXXXX .XX",
"XXX .XXXXXXX .XX",
"XXX          .XX",
"XXXX..........XX",
"XXXXXXXXXXXXXXXX"
};
