/* XPM */
static char *xpm_page[] = {
/* columns rows colors chars-per-pixel */
"32 32 4 1",
"  c black",
". c #C0C0C0",
"X c gray100",
"o c None",
/* pixels */
"XXXXXXXXXXXXXXXXXXXXXooooooooooo",
"X..................X. oooooooooo",
"X..................X.. ooooooooo",
"X..................X... oooooooo",
"X..................X     ooooooo",
"X....................... ooooooo",
"X...XXXX.XXXXX.XXX...... ooooooo",
"X....    .     .   ..... ooooooo",
"X...XXXXXX.XXXX.XX.X.... ooooooo",
"X....      .    .  . ... ooooooo",
"X...XXXX.XXXXXX.XXXX.... ooooooo",
"X....    .      .    ... ooooooo",
"X...XXXXXXXXX.XXX....... ooooooo",
"X....         .   ...... ooooooo",
"X...XX.XXX.XX.XXX.XX.... ooooooo",
"X....  .   .  .   .  ... ooooooo",
"X...X.X.XXX.XX.XXXX..... ooooooo",
"X.... . .   .  .    .... ooooooo",
"X...XXXX.XXXX.XXXXXX.... ooooooo",
"X....    .    .      ... ooooooo",
"X...XX.XXXX.XX.XXX...... ooooooo",
"X....  .    .  .   ..... ooooooo",
"X...XXX.XXXXXXX.XXX..... ooooooo",
"X....   .       .   .... ooooooo",
"X...XXXXXXXXXXXX.XX..... ooooooo",
"X....            .  .... ooooooo",
"X....................... ooooooo",
"X....................... ooooooo",
"X....................... ooooooo",
"X                        ooooooo",
"oooooooooooooooooooooooooooooooo",
"oooooooooooooooooooooooooooooooo"
};
