/* XPM */
static const char *xpm_recycle[] = {
/* columns rows colors chars-per-pixel */
"16 16 181 2",
"   c black",
".  c #000001",
"X  c #010100",
"o  c #010101",
"O  c #000002",
"+  c #000003",
"@  c #000202",
"#  c #010202",
"$  c #030301",
"%  c #030404",
"&  c #070000",
"*  c #050505",
"=  c #060607",
"-  c #00000A",
";  c #00000B",
":  c #0A0A0B",
">  c #0B0B0F",
",  c #090C0B",
"<  c #0A0C0C",
"1  c #0D0D0B",
"2  c #0C0C0C",
"3  c #0C0C0F",
"4  c #000010",
"5  c #000018",
"6  c #00001B",
"7  c #111107",
"8  c #161600",
"9  c #181800",
"0  c #1E1E00",
"q  c #12121C",
"w  c #171A1A",
"e  c #191A1A",
"r  c #1A1A19",
"t  c #000027",
"y  c #0A0A24",
"u  c #00003C",
"i  c #100E28",
"p  c #1D2020",
"a  c #230000",
"s  c #260000",
"d  c #3A0000",
"f  c #3B3B00",
"g  c #2A2A23",
"h  c #33333D",
"j  c #37373C",
"k  c #393C31",
"l  c #3A3E32",
"z  c #00004C",
"x  c #02024D",
"c  c #000050",
"v  c #01015A",
"b  c #070759",
"n  c #090969",
"m  c #373742",
"M  c #460000",
"N  c #520000",
"B  c #540000",
"V  c #5F0000",
"C  c #563C3C",
"Z  c #573F3F",
"A  c #6E0C0C",
"S  c #750202",
"D  c #7C0000",
"F  c #7D0000",
"G  c #7E0000",
"H  c #6B312F",
"J  c #683333",
"K  c #7D3134",
"L  c #47472B",
"P  c #424731",
"I  c #424732",
"U  c #44443F",
"Y  c #565627",
"T  c #52523A",
"R  c #545439",
"E  c #757500",
"W  c #7D7D00",
"Q  c #7E7E00",
"!  c #7F7F2B",
"~  c #404048",
"^  c #4C4C42",
"/  c #404055",
"(  c #594040",
")  c #594646",
"_  c #5F5F7F",
"`  c #60607F",
"'  c #61617F",
"]  c #62627C",
"[  c #000082",
"{  c #00008E",
"}  c #000094",
"|  c #0000A9",
" . c #0000B6",
".. c #1E1EAC",
"X. c #0000C0",
"o. c #0202C3",
"O. c #0000E1",
"+. c #0000E3",
"@. c #0101E7",
"#. c #0202E4",
"$. c #0E0EE3",
"%. c #0202FF",
"&. c #2121C3",
"*. c #3F3FC3",
"=. c #2A2AFF",
"-. c #3C3CFF",
";. c #3E3EFF",
":. c #5252A3",
">. c #646480",
",. c #6A6ABA",
"<. c #4040C3",
"1. c #4949F1",
"2. c #5253E7",
"3. c #5555E7",
"4. c #5454FC",
"5. c #5656FE",
"6. c #6161FF",
"7. c #7373E5",
"8. c #7979FF",
"9. c #820303",
"0. c #880505",
"q. c #8D0000",
"w. c #8F0000",
"e. c #8E0404",
"r. c #A20000",
"t. c #B60202",
"y. c #9B7171",
"u. c #A95555",
"i. c #BF5E5E",
"p. c #A06464",
"a. c #B96969",
"s. c #CA3F3F",
"d. c #DB2A2A",
"f. c #DC3131",
"g. c #DF3333",
"h. c #DF3636",
"j. c #E60101",
"k. c #E70101",
"l. c #E80000",
"z. c #E71616",
"x. c #E31B1B",
"c. c #E11D1D",
"v. c #E01E1E",
"b. c #F50101",
"n. c #F50C0C",
"m. c #FC0000",
"M. c red",
"N. c #E34444",
"B. c #E16F6F",
"V. c #FF6F6F",
"C. c #FA7777",
"Z. c #808000",
"A. c #9B9B0F",
"S. c #818128",
"D. c #838329",
"F. c #8B8B37",
"G. c #93933A",
"H. c #AAAA00",
"J. c #ADAD00",
"K. c #A9A90C",
"L. c #B4B40A",
"P. c #BFBF00",
"I. c #BEBE0D",
"U. c #B1B11B",
"Y. c #A7A73E",
"T. c #88885D",
"R. c #8D8D5A",
"E. c #93934C",
"W. c #C0C031",
"Q. c #F1F10E",
"!. c #F3F30F",
"~. c #F7F70A",
"^. c #F4F40C",
"/. c #F8F807",
"(. c #FEFE00",
"). c yellow",
"_. c #F3F310",
"`. c #8585FF",
"'. c #9090FF",
"]. c #9191FF",
"[. c None",
/* pixels */
"[.[.[.[.[.  ) y.B.C.C.a.e [.% p ",
"[.[.[.[.  Z s.S S l.z.h.u.w Z p.",
"[.[.[.[., J t.r.d N j.v.h.i.N.q.",
"j >._ _ ] ] K q.a   N j.v.f.d.0.",
"q ..4.].`.3.i a & [.  A b.x.n.w.",
"[.y &.8.=.$.6     % ( h.m.m.m.w.",
"r :.1.-.%.#.6 [.[.< J 9.G G G M ",
",.4.;.#.X.O.6 [.[.=   = l I P l ",
"].6.@.c 6 { 6 [.1 ^ 3 3 G.I.U.Y ",
"].3.n h   ;   , D.Y., > F.L.F.L ",
"7.b v <./ [., ! ~.W.T R T.E.R.U ",
"m t } o.<.~ D.^.)./._._.Q._.A.7 ",
"  u |  .x g K.).).).).).).H.8   ",
"  4 [ x   [.8 H.).P.W Z.E 9   [.",
"[.  -   [.[.  8 J.W         [.[.",
"[.[.[.[.[.[.[.  0 f   [.[.[.[.[."
};
