/* XPM */
static const char *xpm_hint[] = {
/* columns rows colors chars-per-pixel */
"16 16 25 1",
"  c black",
". c #111111",
"X c #444444",
"o c #555555",
"O c gray40",
"+ c #777777",
"@ c #333399",
"# c #336699",
"$ c #3265CB",
"% c #656598",
"& c #6666CC",
"* c #659898",
"= c #6699CC",
"- c #6598FF",
"; c #980097",
": c #888888",
"> c #AAAAAA",
", c #BBBBBB",
"< c #9898CB",
"1 c #9999FF",
"2 c #98CBCB",
"3 c #99CCFF",
"4 c #CBCBFF",
"5 c #EEEEEE",
"6 c None",
/* pixels */
"6666666666 >6666",
"666666666 >66666",
"6#%%*=== ++<<<O6",
"6#113333 54433X6",
"6@--;-1 >4 <1<X6",
"6@&-;&- 43 <<<X6",
"6@$&&&& 333<<<X6",
"6@$$&& <<<<<<<X6",
"6@$$$$  .<<<<<X6",
"6@$;;$$$ <*  <X6",
"6@$$$;;;   <<<X6",
"6@$$$&&& :1<<<X6",
"6@&&&&&& O,2<<X6",
"6OXXXXXX  ooooo6",
"666666666 >66666",
"6666666666 >6666"
};
