/* XPM */
static const char *xpm_redeye[] = {
/* columns rows colors chars-per-pixel */
"16 16 63 1",
"  c black",
". c #2C2C2C",
"X c #2F2F2F",
"o c #323232",
"O c gray22",
"+ c gray23",
"@ c #3E3E3E",
"# c #471007",
"$ c #4D160D",
"% c #4F1910",
"& c #562016",
"* c #5C2626",
"= c #7E1010",
"- c #414141",
"; c #444444",
": c #464646",
"> c gray28",
", c gray29",
"< c gray30",
"1 c #515151",
"2 c #535353",
"3 c #565656",
"4 c gray36",
"5 c #5F5F5F",
"6 c #606060",
"7 c #626262",
"8 c #656565",
"9 c gray42",
"0 c gray43",
"q c gray44",
"w c #767676",
"e c #777777",
"r c gray47",
"t c #797979",
"y c gray48",
"u c #7C7C7C",
"i c gray50",
"p c #8D1F1F",
"a c #B20C0C",
"s c #BD1910",
"d c #905858",
"f c #DC0000",
"g c #E50A00",
"h c #F61C00",
"j c #C65A46",
"k c #808080",
"l c gray51",
"z c #838383",
"x c #848484",
"c c #868686",
"v c gray53",
"b c #898989",
"n c gray55",
"m c #8E8E8E",
"M c #909090",
"N c #929292",
"B c gray58",
"V c #959595",
"C c #989898",
"Z c gray63",
"A c #A4A4A4",
"S c #AAAAAA",
"D c None",
/* pixels */
"DDDDDDDDDDDDDDDD",
"DDDDDDDDDDDDDDDD",
"DDDDDDDDDDDDDDDD",
"DDDDDD3<D6qDxDDD",
"DDDD:XXO:+@:2eDD",
"DDt2@XX,<++5<DDD",
"DD2@+o*p=*2:55DD",
"Dk89q6g#%g9m53DD",
"DD9iNxf$&hkAC0DD",
"DkCNAZdasjSVxkmD",
"DDDtkVmnmAmmtnDD",
"DDDvDkeVtnkxiDDD",
"DDDDDDnmDxNxDDDD",
"DDDDDDDDDDDDDDDD",
"DDDDDDDDDDDDDDDD",
"DDDDDDDDDDDDDDDD"
};
