/* XPM */
static char *xpm_landscap[] = {
/* columns rows colors chars-per-pixel */
"16 16 3 1",
"  c black",
". c #808080",
"X c None",
/* pixels */
"XXXXXXXXXXXXXXXX",
"XXXXXXXXXXXXXXXX",
"X             XX",
"X ........... .X",
"X .XXXXXXXXXX .X",
"X .XXXXXXXXXX .X",
"X .XXXXXXXXXX .X",
"X .XXXXXXXXXX .X",
"X .XXXXXXXXXX .X",
"X .XXXXXXXXXX .X",
"X .XXXXXXXXXX .X",
"X             .X",
"XX.............X",
"XXXXXXXXXXXXXXXX",
"XXXXXXXXXXXXXXXX",
"XXXXXXXXXXXXXXXX"
};
