/* XPM */
static const char *xpm_mode_crop[] = {
/* columns rows colors chars-per-pixel */
"16 16 32 1",
"  c black",
". c #2A2A2A",
"X c #2C2C2C",
"o c #2F2F2F",
"O c #3E3E3E",
"+ c gray31",
"@ c #505050",
"# c #656565",
"$ c gray40",
"% c #676767",
"& c #686868",
"* c #6F6F6F",
"= c #808080",
"- c gray53",
"; c #898989",
": c #8B8B8B",
"> c gray55",
", c #8D8D8D",
"< c gray58",
"1 c gray60",
"2 c #9B9B9B",
"3 c gray62",
"4 c #C3C3C3",
"5 c gray78",
"6 c #CBCBCB",
"7 c gray90",
"8 c gray98",
"9 c #FBFBFB",
"0 c gray99",
"q c #FEFEFE",
"w c gray100",
"e c None",
/* pixels */
"eeeeeeeeeeeeeeee",
"eeeeeeeeeeeeeeee",
"e            eee",
"e =======:==eeee",
"e =eeeeeeoeeeeee",
"e =eeeeee$2ee ee",
"e =eeeeee$82, ee",
"e =eeeeee$ww<.ee",
"e =eeeeee%www:ee",
"e eeeeeee%wwww34",
"eeeeeeeee%w7w%$e",
"eee======%7ow+ee",
"ee       O+ #6ee",
"eeeeeeeeeeeee6*e",
"eeeeeeeeeeeee:52",
"eeeeeeeeeeeeee-e"
};
