/* XPM */
static const char *xpm_inclinaison[] = {
/* columns rows colors chars-per-pixel */
"16 16 7 1",
"  c black",
". c gray25",
"X c #555555",
"o c #808080",
"O c gray75",
"+ c gray100",
"@ c None",
/* pixels */
"@@@@ @@@@@@@@@@@",
"@@@@oX@@@@@@@@@@",
"@@@@o+X@@@@@@@@@",
"@@@@o++X@@@@@@@@",
"@@@@o+++X@@@@@@@",
"@@@@o++Oo @@@@@@",
"@@@@oOoo@@@@@@@@",
"@@@@.@ + @@@@@@@",
"@@@@@@@ooX@@@@@@",
"@@@@@@oOo+X@@@@@",
"@@@@@@oo+oo@@@@@",
"@@@@@@@oOo.@@@@@",
"@@@@@@@oOOO @@@@",
"@@@@@@@X+oOX@@@@",
"@@@@@@@@@@XO@@@@",
"@@@@@@@@@@@o @@@"
};
