/* XPM */
static const char *xpm_mode_redeye[] = {
/* columns rows colors chars-per-pixel */
"16 16 66 1",
"  c black",
". c #090909",
"X c gray11",
"o c #272727",
"O c #2C2C2C",
"+ c #332928",
"@ c gray19",
"# c #343434",
"$ c #393939",
"% c #3A3A3A",
"& c gray24",
"* c #471007",
"= c #4D160D",
"- c #562016",
"; c #5A2B23",
": c #5F322B",
"> c #5F332C",
", c #60342D",
"< c #62362F",
"1 c #434343",
"2 c #464646",
"3 c #4B4B4B",
"4 c #505050",
"5 c gray33",
"6 c gray38",
"7 c #656362",
"8 c #656565",
"9 c #6B6665",
"0 c #686868",
"q c DimGray",
"w c gray42",
"e c #6D6D6D",
"r c #777777",
"t c gray47",
"y c gray48",
"u c #B20C0C",
"i c #BD1910",
"p c #905858",
"a c #DC0000",
"s c #808080",
"d c gray51",
"f c #838383",
"g c #848484",
"h c gray52",
"j c #868686",
"k c gray53",
"l c #8D8786",
"z c #898989",
"x c gray55",
"c c #918C8B",
"v c #938D8D",
"b c #909090",
"n c #929292",
"m c #959191",
"M c #959595",
"N c #989898",
"B c #9D9D9D",
"V c gray63",
"C c #C6C6C6",
"Z c #CBCBCB",
"A c gray90",
"S c gray98",
"D c #FBFBFB",
"F c gray99",
"G c #FEFEFE",
"H c gray100",
/* pixels */
"****************",
"****************",
"****************",
"*********;******",
"*********+:*****",
"*********7c>****",
"*********7Sm:***",
"*********7HHl<**",
"  0dbga=-7HHHc>*",
" gNbVVpui9HHHHBo",
"   ygMbzx0HAHe5@",
"   g gyMy0AOS4  ",
"      gx 2xg8Z% ",
"         &. 2Z6 ",
"            XrC%",
"             3g#"
};
